<?xml version="1.0" encoding="UTF-8" standalone="no"?>
<svg
   xmlns:dc="http://purl.org/dc/elements/1.1/"
   xmlns:cc="http://creativecommons.org/ns#"
   xmlns:rdf="http://www.w3.org/1999/02/22-rdf-syntax-ns#"
   xmlns:svg="http://www.w3.org/2000/svg"
   xmlns="http://www.w3.org/2000/svg"
   id="svg14"
   xml:space="preserve"
   viewBox="146 312 736 144"
   y="0px"
   x="0px"
   version="1.1"><metadata
     id="metadata20"><rdf:RDF><cc:Work
         rdf:about=""><dc:format>image/svg+xml</dc:format><dc:type
           rdf:resource="http://purl.org/dc/dcmitype/StillImage" /></cc:Work></rdf:RDF></metadata><defs
     id="defs18" /><g
     transform="translate(-9.6434,11.232)"
     id="logo-group"><path
       stroke-miterlimit="2"
       d="m 336.75,359.28 v -0.1116 c 0,-9.7092 7.9236,-17.744 17.744,-17.744 v -16.74 c -4.6872,0 -9.2628,1.0044 -13.504,2.79 -4.1292,1.674 -7.812,4.1292 -10.937,7.3656 -3.1248,3.1248 -5.6916,6.8076 -7.3656,10.937 -1.7856,4.2408 -2.6784,8.8164 -2.6784,13.392 v 62.05 h 16.74 v -46.314 h 17.744 v -15.624 z"
       style="font-variant-ligatures:normal;fill:#2b4458;stroke-width:0;stroke-miterlimit:2"
       id="path103175" /><path
       stroke-miterlimit="2"
       d="m 397.05,358.39 0.1116,3.5712 c -4.464,-2.232 -9.3744,-3.4596 -14.396,-3.4596 -4.2408,0 -8.4816,0.7812 -12.388,2.4552 -3.7944,1.674 -7.1424,3.906 -10.156,6.8076 -2.9016,2.9016 -5.1336,6.3612 -6.8076,10.156 -1.5624,3.906 -2.4552,8.1468 -2.4552,12.388 0,4.2408 0.89279,8.4816 2.4552,12.388 1.674,3.7944 3.906,7.1424 6.8076,10.156 3.0132,2.9016 6.3612,5.1336 10.156,6.8076 3.906,1.5624 8.1468,2.4552 12.388,2.4552 5.022,0 9.9324,-1.2276 14.396,-3.4596 l -0.1116,2.5668 h 16.74 v -62.831 z m -6.696,44.863 c -2.232,1.3392 -4.9104,2.1204 -7.5888,2.1204 -8.2584,0 -15.066,-6.8076 -15.066,-15.066 0,-8.2584 6.8076,-15.066 15.066,-15.066 2.9016,0 5.8032,0.7812 8.1468,2.4552 2.4552,1.4508 4.3524,3.6828 5.4684,6.2496 1.0044,2.0088 1.4508,4.1292 1.4508,6.3612 0,2.6784 -0.66958,5.2452 -2.0088,7.5888 -1.3392,2.232 -3.1248,4.1292 -5.4684,5.3568 z"
       style="font-variant-ligatures:normal;fill:#2b4458;stroke-width:0;stroke-miterlimit:2"
       id="path103177" /><path
       stroke-miterlimit="2"
       d="m 469.98,368.32 c -5.3568,-5.2452 -12.388,-8.1468 -19.865,-8.1468 -4.0176,0 -7.812,0.7812 -11.272,2.3436 v -4.1292 h -16.74 v 27.342 c -0.11161,0.8928 -0.11161,1.674 -0.11161,2.5668 h 0.11161 v 32.922 h 16.74 v -34.596 c 0.7812,-5.4684 5.4684,-9.7092 11.272,-9.7092 6.2496,0 11.383,5.1336 11.383,11.383 v 32.922 h 16.74 v -32.922 c 0,-7.5888 -3.0132,-14.62 -8.2584,-19.976 z"
       style="font-variant-ligatures:normal;fill:#2b4458;stroke-width:0;stroke-miterlimit:2"
       id="path103179" /><path
       stroke-miterlimit="2"
       d="m 522.01,374.68 v -15.624 h -17.75 v -19.98 l -16.74,5.58 v 43.301 c 0,4.6872 0.89279,9.1512 2.6784,13.392 1.674,4.1292 4.2408,7.812 7.3656,10.937 3.1248,3.2364 6.8076,5.6916 10.937,7.4772 4.2408,1.7856 8.8164,2.6784 13.504,2.6784 v -16.74 c -9.8208,0 -17.744,-7.9236 -17.744,-17.744 v -13.28 z"
       style="font-variant-ligatures:normal;fill:#2b4458;stroke-width:0;stroke-miterlimit:2"
       id="path103181" /><path
       stroke-miterlimit="2"
       d="m 566.63,358.39 0.1116,3.5712 c -4.464,-2.232 -9.3744,-3.4596 -14.396,-3.4596 -4.2408,0 -8.4816,0.7812 -12.388,2.4552 -3.7944,1.674 -7.1424,3.906 -10.156,6.8076 -2.9016,2.9016 -5.1336,6.3612 -6.8076,10.156 -1.5624,3.906 -2.4552,8.1468 -2.4552,12.388 0,4.2408 0.89279,8.4816 2.4552,12.388 1.674,3.7944 3.906,7.1424 6.8076,10.156 3.0132,2.9016 6.3612,5.1336 10.156,6.8076 3.906,1.5624 8.1468,2.4552 12.388,2.4552 5.022,0 9.9324,-1.2276 14.396,-3.4596 l -0.1116,2.5668 h 16.74 v -62.831 z m -6.696,44.863 c -2.232,1.3392 -4.9104,2.1204 -7.5888,2.1204 -8.2584,0 -15.066,-6.8076 -15.066,-15.066 0,-8.2584 6.8076,-15.066 15.066,-15.066 2.9016,0 5.8032,0.7812 8.1468,2.4552 2.4552,1.4508 4.3524,3.6828 5.4684,6.2496 1.0044,2.0088 1.4508,4.1292 1.4508,6.3612 0,2.6784 -0.66958,5.2452 -2.0088,7.5888 -1.3392,2.232 -3.1248,4.1292 -5.4684,5.3568 z"
       style="font-variant-ligatures:normal;fill:#2b4458;stroke-width:0;stroke-miterlimit:2"
       id="path103183" /><path
       stroke-miterlimit="2"
       d="m 614.79,421.89 c 11.272,0 20.423,-9.1512 20.423,-20.423 0,-11.2718 -9.1512,-20.423 -20.423,-20.423 h -4.6872 c -1.674,0 -2.9016,-1.3392 -2.9016,-2.9016 0,-1.674 1.2276,-3.0132 2.9016,-3.0132 h 23.324 v -17.521 h -23.324 c -11.272,0 -20.423,9.2628 -20.423,20.534 0,11.272 9.1512,20.423 20.423,20.423 h 4.6872 c 1.5624,0 2.9016,1.3392 2.9016,2.9016 0,1.674 -1.3392,2.9016 -2.9016,2.9016 h -26.114 v 17.521 z"
       style="font-variant-ligatures:normal;fill:#2b4458;stroke-width:0;stroke-miterlimit:2"
       id="path103185" /><path
       stroke-miterlimit="2"
       d="m 643.91,443.32 h 17.744 l 33.926,-84.258 h -17.856 l -14.062,35.266 -14.954,-35.266 h -18.414 l 24.887,56.246 z"
       style="font-variant-ligatures:normal;fill:#2b4458;stroke-width:0;stroke-miterlimit:2"
       id="path103187" /><path
       stroke-miterlimit="2"
       d="m 745.28,367.76 c -5.3568,-5.3568 -12.388,-8.2584 -19.976,-8.2584 -4.0176,0 -7.9236,0.7812 -11.495,2.4552 v -30.69 l -16.74,5.58 v 48.434 c -0.1116,0.8928 -0.1116,1.674 -0.1116,2.5668 h 0.1116 v 33.368 h 16.74 v -35.042 c 0.7812,-5.58 5.58,-9.9324 11.495,-9.9324 6.3612,0 11.606,5.1336 11.606,11.606 v 33.368 h 16.74 v -33.368 c 0,-7.5888 -3.0132,-14.731 -8.37,-20.088 z"
       style="font-variant-ligatures:normal;fill:#27b1e6;stroke-width:0;stroke-miterlimit:2"
       id="path103189" /><path
       stroke-miterlimit="2"
       d="m 788.26,422 c 7.4772,0 14.508,-2.9016 19.753,-8.1468 5.2452,-5.2452 8.1468,-12.276 8.1468,-19.753 v -35.042 h -16.74 v 35.042 c 0,6.138 -5.022,11.16 -11.16,11.16 -6.138,0 -11.16,-5.022 -11.16,-11.16 v -35.042 h -16.74 v 35.042 c 0,7.4772 2.9016,14.508 8.1468,19.753 5.2452,5.2452 12.276,8.1468 19.753,8.1468 z"
       style="font-variant-ligatures:normal;fill:#27b1e6;stroke-width:0;stroke-miterlimit:2"
       id="path103191" /><path
       stroke-miterlimit="2"
       d="m 887.86,390.19 c 0,-4.3524 -0.89279,-8.4816 -2.5668,-12.388 -1.5624,-3.7944 -3.906,-7.254 -6.8076,-10.156 -2.9016,-2.9016 -6.2496,-5.2452 -10.044,-6.8076 -4.0176,-1.674 -8.1468,-2.4552 -12.388,-2.4552 -4.3524,0 -8.4816,0.7812 -12.388,2.4552 -1.0044,0.4464 -1.8972,0.7812 -2.6784,1.3392 v -31.806 l -16.74,5.58 v 54.238 c 0,4.2408 0.7812,8.4816 2.4552,12.388 1.5624,3.7944 3.906,7.1424 6.8076,10.044 2.9016,3.0132 6.3612,5.2452 10.156,6.8076 3.906,1.674 8.0352,2.5668 12.388,2.5668 4.2408,0 8.37,-0.8928 12.388,-2.5668 3.6828,-1.5624 7.1424,-3.906 10.044,-6.8076 2.9016,-2.9016 5.2452,-6.2496 6.8076,-10.044 1.674,-4.0176 2.5668,-8.1468 2.5668,-12.388 z m -16.74,0 c 0,8.2584 -6.8076,15.066 -15.066,15.066 -8.37,0 -15.066,-6.8076 -15.066,-15.066 0,-8.37 6.696,-15.066 15.066,-15.066 8.2584,0 15.066,6.696 15.066,15.066 z"
       style="font-variant-ligatures:normal;fill:#27b1e6;stroke-width:0;stroke-miterlimit:2"
       id="path103193" /><path
       style="fill:#AF8B52;stroke-width:0.76499999"
       d="m 234.09,302.22 c -0.70181,0.003 -1.6648,0.0209 -2.1395,0.0387 -0.4751,0.0179 -1.3364,0.0646 -1.914,0.10378 -0.57803,0.0396 -1.0562,0.0766 -1.0625,0.0829 -0.007,0.006 0.15609,0.0706 0.36154,0.14334 0.20544,0.0732 0.79452,0.27817 1.3092,0.45596 0.51466,0.17822 1.4972,0.53295 2.1833,0.78818 0.68607,0.25521 1.7482,0.66353 2.3606,0.90683 0.61206,0.2433 1.544,0.62397 2.0701,0.84556 0.52658,0.22202 1.3781,0.58952 1.8928,0.81748 0.51466,0.22755 1.3283,0.59547 1.8077,0.81793 0.47979,0.22203 1.5227,0.72351 2.3181,1.114 0.79537,0.39046 1.9629,0.98425 2.5946,1.3194 0.63163,0.33517 1.493,0.80134 1.914,1.0357 0.42108,0.23436 1.1293,0.63631 1.5738,0.89275 0.44448,0.25648 1.1433,0.66821 1.5525,0.91494 0.4096,0.24627 1.0987,0.66821 1.5312,0.93743 0.433,0.26924 1.256,0.79453 1.829,1.1672 0.57336,0.3726 1.4631,0.96597 1.9778,1.3181 0.51467,0.35218 1.4049,0.9753 1.9778,1.3845 0.57335,0.40918 1.4912,1.0786 2.0408,1.4878 0.5491,0.40961 1.4296,1.0791 1.9566,1.4887 0.52657,0.40918 0.98165,0.76264 1.0106,0.7852 0.0289,0.0225 -0.0447,-0.16673 -0.16375,-0.42109 -0.11867,-0.25392 -0.44533,-0.92083 -0.72606,-1.4814 -0.28029,-0.5606 -0.69372,-1.3551 -0.91784,-1.7652 -0.22458,-0.41003 -0.60824,-1.0893 -0.85282,-1.5095 -0.24415,-0.42024 -0.63589,-1.071 -0.86981,-1.4462 -0.23394,-0.37514 -0.69118,-1.08 -1.0157,-1.5656 -0.32454,-0.48617 -0.81411,-1.1943 -1.0871,-1.5738 -0.2735,-0.37983 -0.7167,-0.97744 -0.98547,-1.3284 -0.2684,-0.3509 -0.73117,-0.9349 -1.0276,-1.2973 -0.29646,-0.36281 -0.8239,-0.98424 -1.1727,-1.3815 -0.34835,-0.39769 -1.0213,-1.1174 -1.495,-1.6002 -0.4734,-0.48233 -0.93276,-0.92596 -1.0208,-0.98555 -0.11442,-0.0778 -0.49425,-0.19268 -1.3505,-0.4079 -0.65502,-0.16503 -1.6214,-0.39556 -2.148,-0.5121 -0.52615,-0.11654 -1.359,-0.28839 -1.8502,-0.38196 -0.4896,-0.0954 -1.2393,-0.22981 -1.66,-0.30042 -0.42075,-0.0706 -1.1704,-0.18551 -1.66,-0.25482 -0.4896,-0.0698 -1.3234,-0.17526 -1.8513,-0.23478 -0.5202,-0.0591 -1.3005,-0.13655 -1.7212,-0.17143 -0.42075,-0.0353 -1.071,-0.0838 -1.4458,-0.10756 -0.37485,-0.0242 -1.1704,-0.063 -1.7672,-0.0859 -0.5967,-0.023 -1.66,-0.0392 -2.3562,-0.0357 z m -35.797,11.477 c -0.0366,-4.3e-4 -0.46745,0.27945 -0.95701,0.62184 -0.48915,0.3424 -1.4066,1.0094 -2.0383,1.4827 -0.63163,0.47297 -1.5504,1.182 -2.0416,1.5754 -0.49127,0.39344 -1.1803,0.95571 -1.5312,1.2496 -0.3509,0.29348 -1.0115,0.86177 -1.4674,1.262 -0.45596,0.40066 -1.2029,1.071 -1.6588,1.4895 -0.45596,0.41853 -1.4487,1.3734 -2.2058,2.1224 -0.75753,0.7486 -1.7733,1.7822 -2.2577,2.2968 -0.48489,0.51466 -1.0906,1.1654 -1.3462,1.4462 -0.25605,0.28072 -0.80003,0.89321 -1.2097,1.3611 -0.40918,0.46788 -1.0706,1.2428 -1.47,1.7226 -0.39897,0.47936 -0.9932,1.2067 -1.3198,1.6163 -0.32709,0.40918 -0.78688,0.9932 -1.0217,1.2973 -0.23521,0.30412 -0.70437,0.92596 -1.0429,1.3824 -0.339,0.45597 -0.90049,1.2314 -1.248,1.7226 -0.3475,0.49127 -0.93192,1.3428 -1.2981,1.8928 -0.36664,0.54997 -1.1225,1.7171 -1.6806,2.5946 -0.55762,0.87707 -1.2845,2.0353 -1.615,2.5733 -0.33049,0.53805 -0.86047,1.4185 -1.1773,1.9566 -0.31687,0.53805 -0.72903,1.2463 -0.91616,1.5738 -0.18715,0.32751 -0.54231,0.96168 -0.78986,1.4091 -0.24755,0.44745 -0.69288,1.27 -0.98938,1.8281 -0.29646,0.55804 -0.87447,1.6848 -1.2841,2.504 -0.41002,0.81923 -0.90767,1.8341 -1.1059,2.2551 -0.19863,0.42109 -0.54274,1.1672 -0.76515,1.6575 -0.22246,0.49083 -0.62993,1.4189 -0.90553,2.0629 -0.27605,0.64397 -0.69246,1.6495 -0.92596,2.2343 -0.23351,0.58484 -0.59717,1.5227 -0.80815,2.0842 -0.21139,0.56144 -0.57463,1.5661 -0.8073,2.233 -0.23309,0.66651 -0.57846,1.7001 -0.76775,2.2968 -0.18971,0.59632 -0.43895,1.4002 -0.55464,1.7864 -0.11612,0.38579 -0.33858,1.1612 -0.49552,1.7226 -0.15653,0.56145 -0.41514,1.5376 -0.57464,2.1692 -0.15993,0.63163 -0.38706,1.5793 -0.50488,2.1054 -0.11782,0.52657 -0.28115,1.2828 -0.36282,1.6801 -0.0817,0.39769 -0.21522,1.077 -0.29688,1.51 -0.0817,0.43257 -0.21565,1.1888 -0.29774,1.6801 -0.0821,0.49127 -0.20672,1.2854 -0.2769,1.7652 -0.0702,0.47936 -0.17567,1.2548 -0.23479,1.7226 -0.0587,0.46787 -0.14504,1.2144 -0.19183,1.6588 -0.0468,0.44448 -0.12292,1.2769 -0.16971,1.8502 -0.0464,0.57294 -0.10463,1.3674 -0.1293,1.7652 -0.0242,0.39769 -0.0642,1.1727 -0.088,1.7226 -0.0242,0.54954 -0.043,2.0616 -0.0421,3.3602 0.001,1.2986 0.0191,2.4329 0.04,2.5214 0.0298,0.12589 0.19098,0.32198 0.7537,0.91448 0.39387,0.41428 1.3483,1.3853 2.1207,2.1573 0.77288,0.77196 1.9217,1.8846 2.5529,2.4725 0.63163,0.58782 1.5116,1.3917 1.9561,1.7869 0.44448,0.39514 1.1433,1.0059 1.5525,1.3581 0.40961,0.35176 1.0795,0.91747 1.4887,1.2569 0.40961,0.33942 1.1654,0.95189 1.6801,1.3611 0.51466,0.40918 1.3377,1.0506 1.829,1.4257 0.49127,0.37473 1.2858,0.96895 1.7652,1.3202 0.47978,0.35091 1.2271,0.88725 1.6614,1.1918 0.43428,0.30496 1.1999,0.83193 1.7014,1.1718 0.50147,0.33942 1.3046,0.87149 1.7839,1.182 0.47979,0.31008 1.2454,0.79713 1.7014,1.0821 0.45639,0.28497 1.2794,0.78642 1.829,1.1148 0.54996,0.32837 1.4874,0.87493 2.0842,1.2147 0.59675,0.33943 1.5538,0.87195 2.1267,1.1828 0.57293,0.3105 1.8843,0.98891 2.9136,1.507 1.0293,0.51765 2.3593,1.168 2.9561,1.4445 0.59676,0.2769 1.4292,0.65546 1.8502,0.84219 0.42109,0.1863 1.1008,0.48233 1.51,0.65758 0.4096,0.17524 1.376,0.57293 2.148,0.88388 0.77196,0.3105 1.8919,0.74733 2.4882,0.97017 0.59675,0.22246 1.6014,0.58612 2.233,0.80769 0.63163,0.22161 1.5656,0.53976 2.0757,0.70649 0.50998,0.16716 1.333,0.42875 1.829,0.58187 0.49595,0.1527 1.4282,0.42917 2.0714,0.61334 0.64354,0.18459 1.6864,0.47213 2.3181,0.63929 0.63163,0.16673 1.541,0.39854 2.0204,0.51466 0.47978,0.11654 1.3322,0.3156 1.8944,0.44192 0.56231,0.12676 1.3564,0.29945 1.7652,0.38366 0.40833,0.0842 1.2326,0.2467 1.8315,0.36112 0.59888,0.11484 1.661,0.30412 2.3606,0.42108 0.69925,0.11697 1.8749,0.29944 2.6116,0.40535 l 1.3398,0.19268 0.57421,-0.39089 c 0.31603,-0.21479 0.93659,-0.64864 1.379,-0.96336 0.44278,-0.31518 1.1991,-0.86981 1.6801,-1.2326 0.48149,-0.36323 1.2008,-0.9183 1.5984,-1.2343 0.39769,-0.31603 1.0582,-0.85198 1.4674,-1.1918 0.4096,-0.33942 1.0123,-0.84815 1.3398,-1.1297 0.32751,-0.282 0.97147,-0.85152 1.4304,-1.2649 0.45936,-0.41386 1.2059,-1.1029 1.6584,-1.5317 0.45299,-0.42875 1.2926,-1.2484 1.866,-1.8218 0.57336,-0.57336 1.3926,-1.4126 1.8205,-1.8647 0.42833,-0.45214 1.0693,-1.1416 1.4249,-1.5321 0.35602,-0.39089 0.97316,-1.0829 1.3717,-1.5384 0.39855,-0.45512 0.98211,-1.1331 1.2973,-1.5061 0.31475,-0.37303 0.88472,-1.062 1.2662,-1.5312 0.38153,-0.46915 0.96466,-1.1973 1.2964,-1.6184 0.33135,-0.42109 1.0051,-1.3016 1.4968,-1.9566 0.49169,-0.65545 1.2501,-1.689 1.6852,-2.2968 0.43513,-0.60824 1.0552,-1.4887 1.3772,-1.9566 0.32241,-0.46787 0.91578,-1.3483 1.3181,-1.9566 0.40237,-0.60824 1.0004,-1.5269 1.3288,-2.0416 0.32836,-0.51466 0.84471,-1.3377 1.1476,-1.829 0.30285,-0.49127 0.81962,-1.3432 1.148,-1.8928 0.32836,-0.54996 0.8558,-1.4495 1.1722,-1.9991 0.31645,-0.54997 0.81028,-1.4206 1.0974,-1.9353 0.2871,-0.51466 0.82559,-1.5006 1.1969,-2.1905 0.37132,-0.69033 1.0842,-2.0684 1.5839,-3.0624 0.49977,-0.99442 1.119,-2.2577 1.3764,-2.8072 0.25733,-0.54997 0.60185,-1.2964 0.76561,-1.6588 0.16376,-0.36282 0.44065,-0.98463 0.61546,-1.3824 0.17482,-0.39769 0.46193,-1.0676 0.63886,-1.4887 0.17652,-0.42108 0.49723,-1.2059 0.71245,-1.7439 0.21564,-0.53805 0.55465,-1.4091 0.75328,-1.9353 0.19863,-0.52657 0.51041,-1.3781 0.69245,-1.8928 0.18247,-0.51466 0.4683,-1.3462 0.63589,-1.8477 0.16715,-0.50148 0.4381,-1.3436 0.60227,-1.8715 0.16376,-0.52785 0.4296,-1.4189 0.59081,-1.9804 0.16077,-0.56144 0.39939,-1.4257 0.52996,-1.9208 0.13058,-0.49553 0.35049,-1.376 0.4883,-1.9566 0.13823,-0.58102 0.34665,-1.5066 0.46362,-2.0561 0.11697,-0.54997 0.30029,-1.4687 0.40705,-2.0416 0.10676,-0.57336 0.27009,-1.5206 0.36281,-2.1054 0.0927,-0.58485 0.21693,-1.427 0.27605,-1.8715 0.0587,-0.44448 0.14504,-1.1433 0.1914,-1.5525 0.0464,-0.4096 0.12293,-1.1654 0.17056,-1.6801 0.0472,-0.51467 0.11527,-1.376 0.151,-1.914 0.0357,-0.53806 0.0761,-1.39 0.0902,-1.8928 l 0.0251,-0.91448 -0.39344,-0.42534 c -0.2165,-0.23393 -0.97698,-1.0323 -1.6899,-1.7741 -0.7133,-0.74222 -1.9021,-1.9306 -2.6418,-2.6414 -0.73966,-0.71075 -1.6138,-1.5393 -1.9421,-1.8413 -0.32837,-0.30156 -0.94088,-0.85535 -1.3611,-1.2305 -0.42024,-0.37473 -1.1561,-1.0178 -1.6359,-1.4283 -0.47935,-0.41088 -1.3024,-1.0995 -1.829,-1.5308 -0.52614,-0.43087 -1.2726,-1.0314 -1.6588,-1.3347 -0.38578,-0.30327 -1.2378,-0.95533 -1.8928,-1.4495 -0.65502,-0.49382 -1.5929,-1.185 -2.0842,-1.5359 -0.49127,-0.35091 -1.1421,-0.81029 -1.4462,-1.0208 -0.30412,-0.21054 -1.0697,-0.72733 -1.7014,-1.1489 -0.63163,-0.42152 -1.6269,-1.0689 -2.2118,-1.4385 -0.58484,-0.36962 -1.5801,-0.98211 -2.2118,-1.3606 -0.63163,-0.37898 -1.5695,-0.92848 -2.0842,-1.2216 -0.51466,-0.29348 -1.3568,-0.76264 -1.8715,-1.0429 -0.51466,-0.2803 -1.3853,-0.74605 -1.9353,-1.0344 -0.54996,-0.2888 -1.612,-0.82513 -2.3606,-1.1922 -0.7486,-0.36707 -1.7439,-0.84387 -2.2118,-1.0604 -0.46787,-0.21607 -1.2812,-0.58441 -1.8077,-0.81832 -0.52614,-0.23393 -1.5887,-0.6882 -2.3606,-1.0093 -0.77196,-0.32113 -1.9778,-0.80478 -2.6796,-1.0744 -0.70182,-0.27009 -1.678,-0.63546 -2.1692,-0.81197 -0.49127,-0.17695 -1.282,-0.45596 -1.7567,-0.62015 -0.4751,-0.1646 -1.4032,-0.47085 -2.0629,-0.68097 -0.6597,-0.21012 -1.7163,-0.53508 -2.3479,-0.72265 -0.63163,-0.18715 -1.6078,-0.4666 -2.1692,-0.62057 -0.56145,-0.15397 -1.6648,-0.44065 -2.4517,-0.63716 -0.78642,-0.19608 -1.9923,-0.48148 -2.6796,-0.63333 -0.68692,-0.15184 -1.689,-0.36451 -2.2271,-0.47213 -0.53806,-0.10803 -1.447,-0.28115 -2.0204,-0.38493 -0.57293,-0.10336 -1.4534,-0.2552 -1.9566,-0.33645 -0.50275,-0.0817 -1.3066,-0.20586 -1.7864,-0.27604 -0.47936,-0.0702 -1.3313,-0.18587 -1.8928,-0.2569 -0.56145,-0.071 -1.4513,-0.17694 -1.9778,-0.23521 -0.52614,-0.0583 -0.98723,-0.10634 -1.0242,-0.10634 z m 19.396,33.413 c 0.0353,0.0132 1.7005,0.86728 3.7005,1.8983 2.0004,1.031 4.6417,2.3917 5.8697,3.0233 1.2284,0.63206 2.2458,1.1604 2.2611,1.1748 0.0158,0.014 -0.18758,0.62865 -0.45172,1.3654 -0.26371,0.73668 -0.70989,1.9523 -0.99144,2.7009 -0.28157,0.74859 -0.62355,1.6528 -0.76051,2.0097 -0.13695,0.35643 -0.26328,0.64864 -0.28072,0.64864 -0.0178,0 -0.59207,-0.28923 -1.276,-0.64269 -0.68437,-0.35346 -1.493,-0.77242 -1.7971,-0.93024 -0.30412,-0.15823 -2.7541,-1.4224 -5.4444,-2.8089 -2.6903,-1.387 -4.8995,-2.5282 -4.9089,-2.5363 -0.01,-0.008 0.41811,-0.66821 0.95021,-1.467 0.53252,-0.7992 1.2883,-1.914 1.6796,-2.4781 0.39132,-0.56357 0.86346,-1.2403 1.0484,-1.5032 0.23691,-0.33559 0.35643,-0.47085 0.40109,-0.45468 z m -7.829,12.033 c 0.0383,0.014 3.2849,1.6826 7.215,3.7081 3.9301,2.025 7.1602,3.695 7.1776,3.7111 0.0174,0.0157 -0.15737,0.44874 -0.38833,0.96253 -0.23139,0.51338 -0.59292,1.3066 -0.80387,1.763 -0.21096,0.45596 -0.55548,1.1931 -0.76607,1.6376 -0.21054,0.44448 -0.527,1.1076 -0.70351,1.4738 l -0.32029,0.66565 -3.7566,-1.9336 c -2.0663,-1.0638 -4.1394,-2.1318 -4.6073,-2.3734 -0.46788,-0.2416 -1.3768,-0.71117 -2.0204,-1.0438 -0.64311,-0.33261 -1.9306,-0.99702 -2.8604,-1.4759 -0.92978,-0.47894 -1.7014,-0.88855 -1.7145,-0.90982 -0.0132,-0.0217 0.11441,-0.29263 0.28328,-0.60228 0.16886,-0.31007 0.61844,-1.1199 0.99909,-1.8 0.38025,-0.68054 0.99144,-1.7524 1.3586,-2.3819 0.36665,-0.62993 0.70522,-1.2088 0.75243,-1.2862 0.0596,-0.0978 0.10718,-0.13313 0.15525,-0.11484 z m -6.8712,12.57 c 0.009,0 2.3104,1.1841 5.1156,2.6316 2.8051,1.4474 6.1623,3.1786 7.46,3.8472 1.2981,0.66864 2.3666,1.2348 2.3742,1.2581 0.008,0.0229 -0.20969,0.45001 -0.48319,0.94853 -0.27349,0.49807 -0.84816,1.5214 -1.2769,2.2734 -0.42917,0.75201 -0.9932,1.7281 -1.2534,2.1692 -0.26074,0.44107 -0.47979,0.80768 -0.48659,0.81533 -0.007,0.007 -1.8383,-0.92855 -4.0688,-2.0795 -2.2305,-1.1509 -5.4814,-2.8285 -7.2244,-3.7281 -1.7426,-0.89956 -3.1743,-1.6409 -3.1811,-1.6478 -0.007,-0.007 0.2735,-0.64141 0.6227,-1.4108 0.34963,-0.76898 0.86514,-1.8864 1.1463,-2.4827 0.28115,-0.59676 0.67501,-1.4244 0.87531,-1.8396 0.20034,-0.41513 0.37132,-0.75498 0.38025,-0.75498 z m -5.7808,13.143 c 0.0225,0 1.6695,0.84089 3.6592,1.8681 1.9898,1.0276 4.9939,2.5776 6.6757,3.4444 1.6818,0.86644 3.0663,1.5844 3.0769,1.5946 0.0106,0.0106 -0.42577,0.68607 -0.96895,1.5006 -0.54359,0.81496 -1.1994,1.7877 -1.4576,2.162 -0.25776,0.3743 -0.71755,1.0344 -1.0213,1.4674 -0.30369,0.43257 -0.55591,0.792 -0.56017,0.79797 -0.004,0.006 -1.7477,-0.88641 -3.8744,-1.9825 -2.1267,-1.0966 -4.3546,-2.245 -4.9514,-2.5525 -0.59633,-0.30751 -1.5372,-0.792 -2.091,-1.077 l -1.0059,-0.51764 0.2467,-0.70479 c 0.13568,-0.38791 0.44193,-1.2411 0.68097,-1.8961 0.23904,-0.65502 0.6546,-1.7652 0.92343,-2.467 0.2684,-0.70181 0.51935,-1.3573 0.5572,-1.4568 0.0378,-0.0995 0.0876,-0.18077 0.11059,-0.18077 z m -35.281,40.328 c -0.063,-0.0447 -0.0366,0.0451 0.11314,0.3828 0.10718,0.24245 0.33007,0.73754 0.49467,1.1004 0.16503,0.36239 0.54231,1.1569 0.83875,1.7652 0.29604,0.60824 0.74604,1.498 1,1.9778 0.2535,0.47936 0.68011,1.2641 0.94852,1.7439 0.26796,0.47935 0.74094,1.293 1.051,1.8077 0.31007,0.51466 0.77923,1.2709 1.0421,1.6801 0.26286,0.40961 0.70053,1.0697 0.97315,1.467 0.27265,0.39727 0.77579,1.0978 1.1187,1.5563 0.34283,0.45852 0.71627,0.91318 0.82941,1.0106 0.11357,0.0974 0.43598,0.29009 0.7167,0.42789 0.28073,0.13781 0.74009,0.3373 1.0208,0.44279 0.28072,0.1059 0.79453,0.28029 1.1424,0.38833 0.3475,0.10804 0.99871,0.2905 1.4475,0.40535 0.44873,0.11527 1.2003,0.28668 1.6703,0.3811 0.47,0.0944 1.1489,0.21947 1.5086,0.27775 0.35942,0.0583 1.008,0.15313 1.4406,0.21097 0.433,0.0574 1.0833,0.13441 1.4462,0.17098 0.36281,0.037 1.0514,0.0953 1.5312,0.13016 0.47979,0.0349 1.5364,0.0851 2.3479,0.11144 1.1016,0.0362 1.8732,0.0362 3.0412,0 0.86086,-0.0264 1.9672,-0.0774 2.4585,-0.11272 0.49127,-0.0353 1.276,-0.10293 1.7439,-0.15057 0.46787,-0.0472 0.97017,-0.0974 1.1165,-0.11143 0.14631,-0.014 0.26583,-0.037 0.26583,-0.051 0,-0.0145 -0.18672,-0.091 -0.4147,-0.17013 -0.22799,-0.0791 -0.96979,-0.35049 -1.6482,-0.60229 -0.67841,-0.25223 -1.6929,-0.63929 -2.2543,-0.86085 -0.56145,-0.22118 -1.4849,-0.59676 -2.0518,-0.83408 -0.56698,-0.23777 -1.5623,-0.66779 -2.2118,-0.95618 -0.64949,-0.28795 -1.5253,-0.68352 -1.9464,-0.87913 -0.42109,-0.19566 -1.5219,-0.73202 -2.4457,-1.1914 -0.92381,-0.45978 -2.1012,-1.0612 -2.6158,-1.3364 -0.51466,-0.27519 -1.2994,-0.70223 -1.7439,-0.94891 -0.44448,-0.24669 -1.2675,-0.71669 -1.829,-1.0438 -0.56145,-0.32751 -1.4419,-0.85405 -1.9566,-1.1702 -0.51466,-0.31603 -1.2514,-0.77494 -1.6376,-1.0195 -0.38578,-0.24499 -1.228,-0.79453 -1.8715,-1.2207 -0.64312,-0.42619 -1.6864,-1.1378 -2.3181,-1.581 -0.63163,-0.4432 -1.4448,-1.023 -1.8077,-1.2883 -0.36239,-0.26542 -1.0672,-0.7907 -1.5661,-1.1672 -0.4985,-0.37642 -0.9434,-0.71074 -0.98846,-0.74264 z"
       id="icon" /></g></svg>