<svg xmlns="http://www.w3.org/2000/svg" xmlns:xlink="http://www.w3.org/1999/xlink" viewBox="0 0 512 512">
  <defs>
    <path id="a" d="M0 0h186.01c-1.14 1.53-1.81 3.32-2.85 4.91-1.05.59-2.22.98-3.34 1.42-1.01 3.18-2.94 5.6-4.64 8.41-.72-.43-1.44-.86-2.16-1.3-.21 1.13-.42 2.25-.64 3.37l-2.34-1.29c-1.05 1.74-1.76 3.71-2.88 5.39-1.05.59-2.22.98-3.34 1.42-1.01 3.17-2.94 5.6-4.64 8.4-.72-.42-1.44-.85-2.16-1.28-.21 1.12-.43 2.24-.64 3.36-.78-.43-1.57-.87-2.35-1.3-1.03 1.75-1.75 3.72-2.87 5.4-1.05.59-2.22.98-3.34 1.42-1.01 3.17-2.94 5.6-4.64 8.41l-2.16-1.29c-.21 1.12-.42 2.24-.64 3.36-.79-.43-1.57-.87-2.36-1.3-1.02 1.75-1.73 3.72-2.86 5.4-1.05.59-2.22.98-3.34 1.42-1.21 3.47-3.38 6.95-5.98 9.55-1.43 1.26-2.18.31-3.69-.21-1.16 1.51-1.85 3.22-2.7 4.9-.83.93-2.51 1.23-3.63 1.76-1.29 3.42-3.26 7.26-6.26 9.47-.77-.8-1.54-1.59-2.32-2.38-1.95 3.14-3.39 6.51-5.15 9.75-2.96.03-6-.19-8.94.19-1.71.34-2.97 1.88-3.04 3.62-.26 5.38-.07 10.8-.07 16.19-1.93.91-3.89 1.73-5.88 2.48 1.28.27 2.57.55 3.85.82-2.38.73-5.7 1.12-7.37 3.12-2.74 2.98-4.95 6.48-7.53 9.59-1.08 1.45-3.38 1.84-5.01 2.5l3.59.51a91.624 91.624 0 0 0-5.62 5.53c-.74-.49-1.47-.99-2.21-1.47-2.22 2.99-4.39 6.04-6.75 8.93-1.08 1.45-3.38 1.84-5.01 2.5l3.59.51a91.624 91.624 0 0 0-5.62 5.53c-.73-.49-1.47-.99-2.2-1.47-2.23 2.99-4.4 6.04-6.76 8.92-1.09 1.47-3.39 1.86-5.04 2.51l3.62.51c-1.96 1.76-3.81 3.61-5.62 5.53-.73-.49-1.47-.99-2.21-1.48-2.22 3-4.39 6.05-6.75 8.93-1.09 1.47-3.39 1.86-5.03 2.51l3.61.51a91.624 91.624 0 0 0-5.62 5.53c-.74-.49-1.47-.99-2.21-1.48-2.22 3-4.39 6.05-6.75 8.94-1.09 1.46-3.39 1.85-5.03 2.5l3.61.51c-2.01 1.82-3.96 3.69-5.75 5.73-.65-.72-1.31-1.44-1.94-2.17V0Z"/>
    <path id="b" d="M186.01 0h62.52c-1.66.63-3.29 1.35-4.92 2.08.29.67.58 1.34.87 2-1.46.35-3.8.27-4.7 1.6-.36 1.22.07 2.71.13 3.97-.53-.4-1.06-.81-1.59-1.21-2.22 1.74-3.06 4.09-4.19 6.55-2.35.74-4.34 2.06-6.48 3.25.29.61.57 1.22.85 1.83-1.47.36-3.81.27-4.72 1.61-.36 1.21.07 2.69.14 3.93-.62-.38-1.25-.77-1.87-1.16-1.84 1.93-2.89 4.13-3.92 6.54-2.35.74-4.34 2.07-6.48 3.24.28.62.57 1.23.85 1.84-1.46.36-3.81.27-4.72 1.61-.36 1.22.07 2.72.13 3.98-.53-.41-1.06-.82-1.58-1.23-2.23 1.75-3.07 4.1-4.2 6.55-2.35.76-4.34 2.08-6.48 3.26.28.61.57 1.22.85 1.83-1.47.36-3.81.27-4.72 1.61-.36 1.22.06 2.71.13 3.97-.54-.41-1.07-.82-1.6-1.23-2.01 2.05-3.43 4.54-5.36 6.66-8.98.04-17.99-.13-26.97.06-2.14.04-3.86 1.68-3.91 3.84-.26 6.71.03 13.45-.08 20.16-17.3.05-34.6-.01-51.9.03 1.76-3.24 3.2-6.61 5.15-9.75.78.79 1.55 1.58 2.32 2.38 3-2.21 4.97-6.05 6.26-9.47 1.12-.53 2.8-.83 3.63-1.76.85-1.68 1.54-3.39 2.7-4.9 1.51.52 2.26 1.47 3.69.21 2.6-2.6 4.77-6.08 5.98-9.55 1.12-.44 2.29-.83 3.34-1.42 1.13-1.68 1.84-3.65 2.86-5.4.79.43 1.57.87 2.36 1.3.22-1.12.43-2.24.64-3.36l2.16 1.29c1.7-2.81 3.63-5.24 4.64-8.41 1.12-.44 2.29-.83 3.34-1.42 1.12-1.68 1.84-3.65 2.87-5.4.78.43 1.57.87 2.35 1.3.21-1.12.43-2.24.64-3.36.72.43 1.44.86 2.16 1.28 1.7-2.8 3.63-5.23 4.64-8.4 1.12-.44 2.29-.83 3.34-1.42 1.12-1.68 1.83-3.65 2.88-5.39l2.34 1.29c.22-1.12.43-2.24.64-3.37.72.44 1.44.87 2.16 1.3 1.7-2.81 3.63-5.23 4.64-8.41 1.12-.44 2.29-.83 3.34-1.42 1.04-1.59 1.71-3.38 2.85-4.91Z"/>
    <path id="c" d="M248.53 0h65.51l.47.65 1.26 1.92-2.64.09c-2.56 3.97-6.39 6.57-9.21 10.29-2.17 2.53-3.6 5.15-6.94 6.18-2.07 2.25-3.9 4.61-6.25 6.61-3.23 2.96-5.48 8.14-9.75 9.39-2.07 2.25-3.9 4.61-6.25 6.61-3.23 2.96-5.48 8.15-9.75 9.39-3.27 4.27-7.68 7.07-10.26 11.86-10.21.05-20.43-.05-30.64.05-13.05.07-26.09-.01-39.13.04 1.93-2.12 3.35-4.61 5.36-6.66.53.41 1.06.82 1.6 1.23-.07-1.26-.49-2.75-.13-3.97.91-1.34 3.25-1.25 4.72-1.61-.28-.61-.57-1.22-.85-1.83 2.14-1.18 4.13-2.5 6.48-3.26 1.13-2.45 1.97-4.8 4.2-6.55.52.41 1.05.82 1.58 1.23-.06-1.26-.49-2.76-.13-3.98.91-1.34 3.26-1.25 4.72-1.61-.28-.61-.57-1.22-.85-1.84 2.14-1.17 4.13-2.5 6.48-3.24 1.03-2.41 2.08-4.61 3.92-6.54.62.39 1.25.78 1.87 1.16-.07-1.24-.5-2.72-.14-3.93.91-1.34 3.25-1.25 4.72-1.61-.28-.61-.56-1.22-.85-1.83 2.14-1.19 4.13-2.51 6.48-3.25 1.13-2.46 1.97-4.81 4.19-6.55.53.4 1.06.81 1.59 1.21-.06-1.26-.49-2.75-.13-3.97.9-1.33 3.24-1.25 4.7-1.6-.29-.66-.58-1.33-.87-2 1.63-.73 3.26-1.45 4.92-2.08Z"/>
    <path id="d" d="M314.04 0h80.1c-1.51 2.05-1.99 3.48-4.82 3.76-1.27 2.21-2.91 2.96-5.18 3.95 1.25.21 2.5.42 3.76.63-1.39.47-2.83.88-4.15 1.54-1.26 1.12-2.03 2.87-2.93 4.29-.58-.13-1.16-.26-1.74-.38-1.03 1.75-2.07 3.51-3.03 5.3-.91.2-1.81.4-2.71.6-1.25 2.28-2.89 3.01-5.2 4.02l3.76.63c-1.39.47-2.83.88-4.15 1.54-1.26 1.12-2.03 2.88-2.93 4.3-.58-.14-1.16-.27-1.74-.4-1.03 1.76-2.07 3.51-3.03 5.31-.91.2-1.81.4-2.71.6-1.25 2.28-2.89 3.01-5.2 4.02l3.76.63c-1.39.47-2.83.88-4.15 1.54-1.26 1.12-2.03 2.88-2.93 4.3-.58-.14-1.17-.27-1.75-.4-1.48 2.29-2.54 4.84-4.1 7.06-2.09 1.27-4.72 1.77-6.98 2.72 1.32.27 2.64.54 3.97.79-1.57.54-3.38.92-4.74 1.88-1.15 1.37-1.8 3.22-2.57 4.83-14.67 0-29.35.03-44.02-.02-11.31-.09-22.61-.04-33.91-.05 2.58-4.79 6.99-7.59 10.26-11.86 4.27-1.24 6.52-6.43 9.75-9.39 2.35-2 4.18-4.36 6.25-6.61 4.27-1.25 6.52-6.43 9.75-9.39 2.35-2 4.18-4.36 6.25-6.61 3.34-1.03 4.77-3.65 6.94-6.18 2.82-3.72 6.65-6.32 9.21-10.29l2.64-.09-1.26-1.92-.47-.65Z"/>
    <path id="e" d="M394.14 0h62.33c-6.11 2.02-9.53 6.58-12.79 11.82-1.49 2.56-3.85 2.8-6.45 3.65l2.49.93c-2.32 1.14-4.56 2.05-6.41 3.92-2.56 2.49-4.13 5.49-6.22 8.29-1.29 1.88-3.85 2.13-5.87 2.86.83.31 1.67.62 2.51.93-2.33 1.14-4.56 2.04-6.42 3.92-2.56 2.48-4.13 5.49-6.22 8.29-1.29 1.87-3.85 2.13-5.87 2.86.83.31 1.66.62 2.5.93-2.33 1.14-4.56 2.05-6.41 3.92-2.56 2.49-4.13 5.49-6.22 8.29-1.29 1.88-3.85 2.13-5.87 2.86.83.31 1.67.62 2.5.92-3.61 1.88-7.57 3.17-8.41 7.68-1.84 1.2-3.04 2.73-4.27 4.51-1.17 1.93-3.84 2.15-5.82 2.89.83.31 1.67.63 2.5.94-2.35 1.01-4.48 2.1-6.36 3.87.52.96 1.04 1.92 1.57 2.88-4.24 0-8.48.02-12.72-.02-.11-6.72.15-13.46-.1-20.17-.05-2.23-1.89-3.87-4.09-3.85-7.11-.16-14.25.01-21.37-.06.77-1.61 1.42-3.46 2.57-4.83 1.36-.96 3.17-1.34 4.74-1.88-1.33-.25-2.65-.52-3.97-.79 2.26-.95 4.89-1.45 6.98-2.72 1.56-2.22 2.62-4.77 4.1-7.06.58.13 1.17.26 1.75.4.9-1.42 1.67-3.18 2.93-4.3 1.32-.66 2.76-1.07 4.15-1.54l-3.76-.63c2.31-1.01 3.95-1.74 5.2-4.02.9-.2 1.8-.4 2.71-.6.96-1.8 2-3.55 3.03-5.31.58.13 1.16.26 1.74.4.9-1.42 1.67-3.18 2.93-4.3 1.32-.66 2.76-1.07 4.15-1.54l-3.76-.63c2.31-1.01 3.95-1.74 5.2-4.02.9-.2 1.8-.4 2.71-.6.96-1.79 2-3.55 3.03-5.3.58.12 1.16.25 1.74.38.9-1.42 1.67-3.17 2.93-4.29 1.32-.66 2.76-1.07 4.15-1.54-1.26-.21-2.51-.42-3.76-.63 2.27-.99 3.91-1.74 5.18-3.95 2.83-.28 3.31-1.71 4.82-3.76Z"/>
    <path id="f" d="M456.47 0H512v3.45c-2.97 2.02-4.78 4.83-6.97 7.58-1.28 1.89-4.43 2-5.97 3.36-3.12 4.39-6.72 8.39-10.04 12.64-1.31 1.9-4.44 2.01-5.96 3.36-3.13 4.39-6.72 8.39-10.04 12.64-1.31 1.9-4.44 2.01-5.96 3.36-3.13 4.39-6.72 8.39-10.04 12.64-1.31 1.9-4.44 2.01-5.96 3.36-3.12 4.39-6.72 8.39-10.04 12.64-1.31 1.9-4.45 2.01-5.96 3.36-3.55 4.99-7.72 9.46-11.37 14.38-.5-.66-.98-1.33-1.45-2.01-.88-2.02-1.78-3.51-4.22-3.54-15.67-.15-31.41-.02-47.09-.06-.53-.96-1.05-1.92-1.57-2.88 1.88-1.77 4.01-2.86 6.36-3.87-.83-.31-1.67-.63-2.5-.94 1.98-.74 4.65-.96 5.82-2.89 1.23-1.78 2.43-3.31 4.27-4.51.84-4.51 4.8-5.8 8.41-7.68-.83-.3-1.67-.61-2.5-.92 2.02-.73 4.58-.98 5.87-2.86 2.09-2.8 3.66-5.8 6.22-8.29 1.85-1.87 4.08-2.78 6.41-3.92-.84-.31-1.67-.62-2.5-.93 2.02-.73 4.58-.99 5.87-2.86 2.09-2.8 3.66-5.81 6.22-8.29 1.86-1.88 4.09-2.78 6.42-3.92-.84-.31-1.68-.62-2.51-.93 2.02-.73 4.58-.98 5.87-2.86 2.09-2.8 3.66-5.8 6.22-8.29 1.85-1.87 4.09-2.78 6.41-3.92l-2.49-.93c2.6-.85 4.96-1.09 6.45-3.65 3.26-5.24 6.68-9.8 12.79-11.82Z"/>
    <path id="g" d="M512 3.45v121.58c-3.2 3.86-7.97 6.71-12.17 9.44-2.73 7.93-9.35 11.65-16 16-1.5 4.18-4.25 7.85-7.88 10.4-2.75 1.95-4.91 4.32-8.13 5.53-1.4 4.21-4.25 7.92-7.87 10.47-2.75 1.95-4.91 4.32-8.13 5.53-1.4 4.21-4.26 7.92-7.87 10.47-2.75 1.95-4.91 4.32-8.13 5.53-2.47 7.5-8.17 10.69-14.11 15.16-2.47 1.41-2.96 4.04-4.83 6.35-1.65 2.02-3.34 4.1-5.26 5.87-2.59 1.62-5.75 3.17-7.8 5.46a43.265 43.265 0 0 1-8.2 10.54c-2.55 1.53-5.19 2.97-7.49 5.04-1.88 2.92-3.49 5.85-5.99 8.34-2.74 3.87-7.19 4.51-10.33 8.08-1.47 2.39-2.76 4.8-4.73 6.84-1.43 1.42-2.77 3.7-4.71 4.41-2.42.65-3.59 3.7-5.54 5.26-3.3 2.71-5.64 6.08-8 9.58-6.27.02-12.54.02-18.81-.01-.07-6.44.12-12.91-.06-19.35-.05-2.82-2.24-4.27-4.92-4.12-15.13-.05-30.31-.02-45.44-.03-.04-9.32-.02-18.63-.01-27.95 21.17-6.19 39.01-19.81 52.17-37.31 19.63-2.41 38.45-9.5 54.08-21.74 16.74-12.94 29.15-31.17 33.99-51.86 3.01-12.21 2.24-23.8 2.41-36.2.47.68.95 1.35 1.45 2.01 3.65-4.92 7.82-9.39 11.37-14.38 1.51-1.35 4.65-1.46 5.96-3.36 3.32-4.25 6.92-8.25 10.04-12.64 1.52-1.35 4.65-1.46 5.96-3.36 3.32-4.25 6.91-8.25 10.04-12.64 1.52-1.35 4.65-1.46 5.96-3.36 3.32-4.25 6.91-8.25 10.04-12.64 1.52-1.35 4.65-1.46 5.96-3.36 3.32-4.25 6.92-8.25 10.04-12.64 1.54-1.36 4.69-1.47 5.97-3.36 2.19-2.75 4-5.56 6.97-7.58Z"/>
    <path id="h" d="M157.98 63.14c8.98-.19 17.99-.02 26.97-.06 13.04-.05 26.08.03 39.13-.04.02 35.63-.01 71.27.01 106.9 10.76-8.79 21.49-17.6 32.23-26.4 10.8 8.75 21.49 17.63 32.29 26.39.02-35.63-.02-71.26.02-106.89 14.67.05 29.35.02 44.02.02 7.12.07 14.26-.1 21.37.06 2.2-.02 4.04 1.62 4.09 3.85.25 6.71-.01 13.45.1 20.17 4.24.04 8.48.02 12.72.02 15.68.04 31.42-.09 47.09.06 2.44.03 3.34 1.52 4.22 3.54-.17 12.4.6 23.99-2.41 36.2-4.84 20.69-17.25 38.92-33.99 51.86-15.63 12.24-34.45 19.33-54.08 21.74-13.16 17.5-31 31.12-52.17 37.31-.01 9.32-.03 18.63.01 27.95 15.13.01 30.31-.02 45.44.03 2.68-.15 4.87 1.3 4.92 4.12.18 6.44-.01 12.91.06 19.35 6.27.03 12.54.03 18.81.01 2.64.12 5.82-.41 8.32.5 2.78 1.46 2.12 4.55 2.25 7.17-.16 4.31.29 8.72-.28 12.99-.77 2.35-2.83 2.91-5.08 2.86-13.18.02-26.39-.02-39.58.01-22.8-.03-45.61 0-68.41-.01-22.51.01-45.04-.03-67.55.03-7.17-.12-14.35.09-21.52-.09-2.16 0-3.98-1.56-4.08-3.76-.23-5-.12-10.07-.07-15.08-.07-2.58 1.51-4.54 4.15-4.56 8.38-.17 16.77.02 25.15-.07.09-6.45-.11-12.9.08-19.34-.01-1.82 1.11-3.42 2.87-3.93 2.59-.4 5.3-.21 7.92-.23 13.21 0 26.41.04 39.62 0 .04-9.27-.07-18.54.05-27.81-8.11-2.77-15.98-5.89-23.24-10.54-11.33-7.06-20.98-16.35-29.06-26.94-10.39-1.35-20.56-3.74-30.22-7.85-16.33-6.85-31.02-17.74-41.72-31.9-11.75-15.33-18.38-34.27-18.39-53.61 0-5.39-.19-10.81.07-16.19.07-1.74 1.33-3.28 3.04-3.62 2.94-.38 5.98-.16 8.94-.19 17.3-.04 34.6.02 51.9-.03.11-6.71-.18-13.45.08-20.16.05-2.16 1.77-3.8 3.91-3.84Zm-47.99 44.03c.06 13.63 4.17 26.77 11.78 38.06 10.58 15.74 26.83 26.84 44.91 32.22-6.7-15.02-10.87-31.02-12.18-47.42-.69-7.63-.49-15.24-.53-22.88-14.66.01-29.32 0-43.98.02Zm235.5 70.26c17.58-5.22 33.43-15.84 44.04-30.9 8.14-11.51 12.64-25.27 12.68-39.38-14.63.04-29.32-.08-43.93.07-.2 5.93.11 11.86-.28 17.78-.85 18.17-5.06 35.85-12.51 52.43Z"/>
    <path id="i" d="M224.08 63.04c10.21-.1 20.43 0 30.64-.05 11.3.01 22.6-.04 33.91.05-.04 35.63 0 71.26-.02 106.89-10.8-8.76-21.49-17.64-32.29-26.39-10.74 8.8-21.47 17.61-32.23 26.4-.02-35.63.01-71.27-.01-106.9Z"/>
    <path id="j" d="M90.04 107.17c.01 19.34 6.64 38.28 18.39 53.61-1.75.45-3.31.15-4.36 1.86-.64-.35-1.27-.69-1.91-1.03-.72 1.3-1.29 2.76-2.19 3.93-1.17.97-2.56 1.68-3.7 2.68-1.29 1.88-2.25 4-3.33 6-.62-.15-1.24-.29-1.85-.44-.98 1.63-1.93 3.26-2.83 4.93-.72-.36-1.42-.75-2.14-1.11-.66 1.31-1.24 2.78-2.15 3.94-1.17.97-2.56 1.68-3.7 2.68-1.29 1.88-2.25 4-3.33 6-.62-.15-1.24-.29-1.86-.43-.97 1.62-1.93 3.25-2.82 4.92-.71-.36-1.42-.74-2.13-1.11-.67 1.32-1.25 2.78-2.16 3.94-1.17.97-2.56 1.67-3.7 2.68-1.29 1.88-2.25 4-3.33 6-.62-.15-1.24-.29-1.86-.43-.97 1.62-1.93 3.25-2.82 4.92-.71-.36-1.42-.74-2.14-1.11-.67 1.32-1.24 2.78-2.15 3.94-1.17.97-2.56 1.68-3.7 2.68-1.29 1.88-2.25 4-3.33 6-.62-.15-1.24-.29-1.86-.43-.97 1.62-1.93 3.25-2.82 4.92-.71-.36-1.42-.74-2.13-1.11-.67 1.32-1.25 2.78-2.16 3.94-1.17.97-2.56 1.68-3.7 2.68-1.29 1.88-2.25 4-3.33 6-.62-.15-1.24-.29-1.86-.43-1.21 2.03-2.41 4.07-3.52 6.16-.37-.94-.74-1.88-1.1-2.82-.78 1.48-1.46 3.12-2.51 4.42-1.16.97-2.55 1.67-3.68 2.67-1.29 1.88-2.25 4-3.33 6-.62-.15-1.23-.29-1.85-.43-1.22 2.03-2.42 4.06-3.53 6.16-.37-.94-.74-1.88-1.11-2.83-.85 1.63-1.59 3.39-2.67 4.88-1.19.59-2.53.9-3.78 1.34v-69.59c.63.73 1.29 1.45 1.94 2.17 1.79-2.04 3.74-3.91 5.75-5.73l-3.61-.51c1.64-.65 3.94-1.04 5.03-2.5 2.36-2.89 4.53-5.94 6.75-8.94.74.49 1.47.99 2.21 1.48 1.8-1.92 3.66-3.77 5.62-5.53l-3.61-.51c1.64-.65 3.94-1.04 5.03-2.51 2.36-2.88 4.53-5.93 6.75-8.93.74.49 1.48.99 2.21 1.48 1.81-1.92 3.66-3.77 5.62-5.53l-3.62-.51c1.65-.65 3.95-1.04 5.04-2.51 2.36-2.88 4.53-5.93 6.76-8.92.73.48 1.47.98 2.2 1.47 1.8-1.92 3.66-3.77 5.62-5.53l-3.59-.51c1.63-.66 3.93-1.05 5.01-2.5 2.36-2.89 4.53-5.94 6.75-8.93.74.48 1.47.98 2.21 1.47 1.8-1.92 3.66-3.77 5.62-5.53l-3.59-.51c1.63-.66 3.93-1.05 5.01-2.5 2.58-3.11 4.79-6.61 7.53-9.59 1.67-2 4.99-2.39 7.37-3.12-1.28-.27-2.57-.55-3.85-.82 1.99-.75 3.95-1.57 5.88-2.48Z"/>
    <path id="k" d="M109.99 107.17c14.66-.02 29.32-.01 43.98-.02.04 7.64-.16 15.25.53 22.88 1.31 16.4 5.48 32.4 12.18 47.42-18.08-5.38-34.33-16.48-44.91-32.22-7.61-11.29-11.72-24.43-11.78-38.06Z"/>
    <path id="l" d="M358.28 107.22c14.61-.15 29.3-.03 43.93-.07-.04 14.11-4.54 27.87-12.68 39.38-10.61 15.06-26.46 25.68-44.04 30.9 7.45-16.58 11.66-34.26 12.51-52.43.39-5.92.08-11.85.28-17.78Z"/>
    <path id="m" d="M512 125.03v61.58c-.95-.21-2.67-1.8-3.27-.34-1.03 2.02-1.87 4.15-2.85 6.2-.64-.37-1.27-.74-1.91-1.12-1.1 1.47-2.59 2.07-4.21 2.8.3 1.13.59 2.25.89 3.38-2.66 1.24-4.3 2.17-5.75 4.83-.61-.23-1.21-.46-1.82-.7-1.07 2.27-2.15 4.53-3.21 6.8-.63-.37-1.27-.73-1.9-1.1-1.1 1.45-2.59 2.06-4.21 2.79.3 1.13.59 2.26.89 3.38-2.67 1.24-4.3 2.17-5.76 4.83-.6-.23-1.2-.46-1.81-.7-1.07 2.27-2.15 4.53-3.21 6.79-.65-.37-1.31-.74-1.96-1.11-1.04 1.04-2.14 2-3.24 2.96l-.36 3.31c-3.51 1.49-4.74 3.42-6.46 6.65-.59-.18-1.18-.36-1.77-.53-.75 1.58-1.49 3.16-2.24 4.74-.86-.49-1.72-.97-2.58-1.46.49 1.34.98 2.68 1.48 4.02-1.03-.65-2.05-1.3-3.08-1.94-.35.34-.69.69-1.04 1.04-.09 1.16-.2 2.32-.29 3.48-3.51 1.48-4.75 3.41-6.48 6.64-.59-.17-1.18-.35-1.77-.52l-2.25 4.74c-.86-.49-1.71-.97-2.57-1.46.49 1.34.98 2.68 1.48 4.03-1.09-.69-2.17-1.38-3.25-2.07-1.01 1.43-1.06 2.97-1.2 4.65-3.52 1.51-4.7 3.36-6.4 6.64-.61-.18-1.21-.36-1.81-.54-.75 1.58-1.49 3.17-2.24 4.75-.86-.49-1.72-.97-2.58-1.46.49 1.35.98 2.69 1.48 4.03-1.09-.69-2.17-1.38-3.25-2.07-1 1.43-1.06 2.97-1.2 4.65-3.52 1.51-4.71 3.36-6.41 6.64l-1.8-.54-2.25 4.74c-.86-.48-1.72-.96-2.59-1.45.51 1.32 1.01 2.64 1.51 3.96-.86-.47-1.73-.94-2.6-1.41-.68 1.33-1.26 2.81-2.18 3.98-1.17.97-2.56 1.68-3.71 2.68-1.29 1.89-2.25 4.03-3.33 6.05l-1.78-.51c-.47.89-.93 1.78-1.4 2.66-.83-.47-1.67-.94-2.5-1.41.5 1.32 1 2.65 1.5 3.97-.82-.47-1.65-.95-2.47-1.43-.73 1.33-1.39 2.79-2.33 3.98-1.15.99-2.54 1.69-3.68 2.69-1.3 1.89-2.26 4.03-3.34 6.04-.6-.16-1.19-.33-1.78-.5-.47.89-.93 1.78-1.4 2.66-.84-.47-1.67-.94-2.51-1.41.51 1.32 1.01 2.63 1.52 3.95-.87-.46-1.74-.93-2.61-1.4-.68 1.33-1.27 2.81-2.19 3.99-1.16.97-2.56 1.67-3.69 2.67-1.3 1.89-2.26 4.02-3.35 6.04-.59-.17-1.18-.33-1.77-.49-.47.88-.93 1.77-1.4 2.65-.84-.47-1.67-.94-2.5-1.41.5 1.32 1 2.64 1.5 3.97-.82-.48-1.65-.95-2.47-1.43-.74 1.34-1.4 2.78-2.33 3.99-1.15.98-2.55 1.68-3.68 2.68-1.3 1.89-2.26 4.02-3.34 6.04-.59-.17-1.19-.33-1.78-.49-.47.88-.93 1.77-1.4 2.65-.84-.47-1.67-.94-2.51-1.41.51 1.32 1.01 2.64 1.51 3.97-.82-.48-1.65-.95-2.47-1.43-.73 1.34-1.39 2.78-2.33 3.98-1.15.99-2.54 1.69-3.68 2.69-1.3 1.89-2.26 4.02-3.34 6.04-.6-.17-1.19-.33-1.78-.49l-1.41 2.67c-.8-.48-1.61-.96-2.42-1.44.42 1.27.84 2.54 1.27 3.81-.34.37-.68.73-1.01 1.09-.38-.92-.76-1.84-1.13-2.75-.78 1.46-1.44 3.1-2.5 4.39-1.16.97-2.54 1.68-3.68 2.69-1.31 1.88-2.26 4.02-3.34 6.04l-1.77-.51c-.47.89-.94 1.79-1.42 2.69-.78-.48-1.56-.97-2.34-1.45.32 1.19.75 2.4.88 3.63-.37 1.28-1.03 2.49-1.57 3.69-10.2-9.02-26.46-9.32-36.89-.52-9.51 7.86-12.14 22.03-6.62 32.97 2.33 4.74 6.07 8.6 10.63 11.24-1.4 2.66-2.3 5.51-3.52 8.25-.72-.18-1.44-.37-2.16-.55-.82.79-1.64 1.57-2.47 2.36-.53-.09-1.05-.17-1.58-.26-1.45 2.33-2.45 5.05-4.14 7.19-.99.39-2.08.57-3.12.82-.9 2.09-1.46 4.42-2.63 6.38-1.17 1.47-3.28 2.29-4.91 3.15-.35 1.14-.69 2.28-1.03 3.41-.71-.39-1.42-.79-2.14-1.19-.76 1.2-1.53 2.4-2.29 3.6l-3 .6c-.88 2.12-1.46 4.46-2.63 6.43-1.17 1.47-3.28 2.29-4.91 3.15-.35 1.14-.69 2.28-1.03 3.41-.71-.39-1.42-.8-2.14-1.19-.76 1.2-1.53 2.4-2.29 3.6-1 .2-2 .4-2.99.6-.89 2.12-1.47 4.45-2.64 6.43-1.17 1.47-3.28 2.29-4.91 3.15-.35 1.14-.69 2.28-1.04 3.43-.66-.41-1.33-.81-1.99-1.21-.83 1.19-1.65 2.39-2.46 3.59-.99.2-1.98.41-2.97.61-1 2.25-1.51 5.09-3.1 6.97-2.42 1.63-4.63 2.73-6.31 5.26h-86.92c1.13-.48 2.24-.99 3.36-1.5-.9-.33-1.8-.65-2.7-.98 2.37-1.14 3.51-2.43 6.06-.9 1.18-3.34 3.37-4.78 5.84-6.99 1.52-3.12 4.05-5.02 6.52-7.32-.81-.26-1.61-.53-2.42-.79 2.37-1.14 3.51-2.43 6.06-.9 1.18-3.35 3.37-4.77 5.84-7 1.52-3.12 4.07-5 6.52-7.33-.75-.2-1.51-.39-2.26-.59 2.35-1.49 4.47-3.29 6.94-4.49 2.23-1.18 4.32-2.38 5.5-4.71 1.24-2.49 3.86-4.21 5.84-6.22-.77-.19-1.53-.38-2.29-.57 2.35-1.49 4.47-3.3 6.95-4.5 2.24-1.18 4.32-2.38 5.5-4.71 1.24-2.49 3.87-4.23 5.85-6.23-.77-.19-1.53-.37-2.3-.56 4.06-3.11 8.69-5.16 12.65-8.4-2.24-.08-4.47-.16-6.71-.37l-.07-.62c5.84-.01 11.69.04 17.53-.04-.02-10.29-.03-20.57.01-30.85 1.27-1.01 2.42-2.04 3.44-3.3.54.37 1.09.73 1.63 1.1.66 11.12-.23 22.33.38 33.45l.78.05c6.11.1 12.22 0 18.34.03.04-8.59.01-17.19.01-25.78.06-2.58.1-5.84 1.73-7.97 2.23-3.16 7.79-3.31 9.96-.03 1.31 1.91 1.3 4.78 1.4 7.01.02 8.92-.01 17.84.01 26.76 6.12.03 12.24.01 18.36 0 .01-10.59.01-21.19 0-31.78-.04-5.52-.94-10.86-4.47-15.27-2.58-3.24-6.24-5.02-10.26-5.76l1.77-1.62c-1.24-.22-2.49-.43-3.74-.63 2.22-.69 3.86-1.47 5.63-2.99 1.88-1.66 4.31-1.19 5.37-3.7.63-1.1-.1-1.78-.44-2.83 4.6.08 5.84-3.44 9.05-6-1.19-.16-2.38-.32-3.57-.47 2.17-.71 3.86-1.5 5.59-3 1.88-1.67 4.31-1.19 5.37-3.7.63-1.1-.1-1.78-.44-2.83 4.61.08 5.83-3.44 9.05-5.99-1.19-.17-2.38-.34-3.58-.5 1.64-.66 3.93-1.04 5.01-2.5 2.36-2.89 4.53-5.94 6.75-8.93.72.47 1.44.95 2.16 1.43 1.1-1.08 2.29-2.03 3.5-2.98-.33-1.07-.66-2.14-1-3.21 1.55-.64 3.61-.9 4.6-2.31 2.34-2.9 4.52-5.94 6.74-8.93.72.47 1.43.95 2.14 1.42 1.12-1.06 2.31-2.02 3.52-2.98-.33-1.07-.67-2.15-1-3.22 3.48-.97 4.35-1.27 5.94-4.61 13.19-.03 26.4.01 39.58-.01 2.25.05 4.31-.51 5.08-2.86.57-4.27.12-8.68.28-12.99-.13-2.62.53-5.71-2.25-7.17-2.5-.91-5.68-.38-8.32-.5 2.36-3.5 4.7-6.87 8-9.58 1.95-1.56 3.12-4.61 5.54-5.26 1.94-.71 3.28-2.99 4.71-4.41 1.97-2.04 3.26-4.45 4.73-6.84 3.14-3.57 7.59-4.21 10.33-8.08 2.5-2.49 4.11-5.42 5.99-8.34 2.3-2.07 4.94-3.51 7.49-5.04 3.28-3.1 6.01-6.59 8.2-10.54 2.05-2.29 5.21-3.84 7.8-5.46 1.92-1.77 3.61-3.85 5.26-5.87 1.87-2.31 2.36-4.94 4.83-6.35 5.94-4.47 11.64-7.66 14.11-15.16 3.22-1.21 5.38-3.58 8.13-5.53 3.61-2.55 6.47-6.26 7.87-10.47 3.22-1.21 5.38-3.58 8.13-5.53 3.62-2.55 6.47-6.26 7.87-10.47 3.22-1.21 5.38-3.58 8.13-5.53 3.63-2.55 6.38-6.22 7.88-10.4 6.65-4.35 13.27-8.07 16-16 4.2-2.73 8.97-5.58 12.17-9.44Z"/>
    <path id="n" d="M102.16 161.61c.64.34 1.27.68 1.91 1.03 1.05-1.71 2.61-1.41 4.36-1.86 10.7 14.16 25.39 25.05 41.72 31.9-5.51 3.36-9.44 8.48-12.05 14.31-3.34 1.03-5.84 3.1-8.59 5.19l1.05 2.61c-1.08-.03-2.15-.05-3.22-.08-2.28 2.52-3.87 5.18-5.23 8.28-2.34.76-4.32 2.08-6.46 3.25.29.61.57 1.23.86 1.84-1.48.35-3.81.26-4.73 1.6-.35 1.23.06 2.71.13 3.98-.53-.41-1.06-.81-1.59-1.21-2.22 1.73-3.06 4.08-4.19 6.54-2.34.75-4.34 2.06-6.47 3.25.28.61.56 1.23.84 1.84-1.47.35-3.8.27-4.72 1.6-.35 1.22.06 2.71.13 3.98-.53-.41-1.06-.81-1.58-1.22-2.23 1.74-3.07 4.09-4.2 6.55-2.35.75-4.34 2.07-6.48 3.25.29.61.57 1.22.86 1.84-1.48.35-3.81.27-4.74 1.6-.34 1.23.07 2.71.14 3.98-.53-.41-1.06-.81-1.59-1.21-2.22 1.74-3.07 4.08-4.19 6.54-2.35.75-4.34 2.07-6.48 3.25.29.61.57 1.23.86 1.84-1.48.35-3.81.27-4.73 1.6-.35 1.22.06 2.71.13 3.97l-1.59-1.2c-2.22 1.74-3.07 4.08-4.19 6.54-2.35.75-4.34 2.07-6.49 3.24.29.62.58 1.23.87 1.85-1.47.35-3.81.26-4.73 1.6-.38 1.17.08 2.64.17 3.84-.6-.31-1.21-.61-1.82-.88-2.01 1.27-2.97 4.28-4 6.35-2.34.76-4.34 2.06-6.48 3.25.29.61.57 1.22.86 1.84-1.48.35-3.81.27-4.73 1.6-.35 1.23.06 2.71.13 3.97l-1.59-1.2c-2.22 1.74-3.07 4.08-4.19 6.54-2.35.76-4.35 2.07-6.49 3.24.29.62.58 1.23.87 1.85-1.47.35-3.81.26-4.73 1.6-.35 1.22.06 2.71.13 3.97l-1.59-1.2c-2.22 1.73-3.06 4.08-4.19 6.54-2.34.75-4.34 2.06-6.47 3.25l.87 1.95c-1.51.18-3.02.35-4.53.53v-77.38c1.25-.44 2.59-.75 3.78-1.34 1.08-1.49 1.82-3.25 2.67-4.88.37.95.74 1.89 1.11 2.83 1.11-2.1 2.31-4.13 3.53-6.16.62.14 1.23.28 1.85.43 1.08-2 2.04-4.12 3.33-6 1.13-1 2.52-1.7 3.68-2.67 1.05-1.3 1.73-2.94 2.51-4.42.36.94.73 1.88 1.1 2.82 1.11-2.09 2.31-4.13 3.52-6.16.62.14 1.24.28 1.86.43 1.08-2 2.04-4.12 3.33-6 1.14-1 2.53-1.71 3.7-2.68.91-1.16 1.49-2.62 2.16-3.94.71.37 1.42.75 2.13 1.11.89-1.67 1.85-3.3 2.82-4.92.62.14 1.24.28 1.86.43 1.08-2 2.04-4.12 3.33-6 1.14-1 2.53-1.71 3.7-2.68.91-1.16 1.48-2.62 2.15-3.94.72.37 1.43.75 2.14 1.11.89-1.67 1.85-3.3 2.82-4.92.62.14 1.24.28 1.86.43 1.08-2 2.04-4.12 3.33-6 1.14-1.01 2.53-1.71 3.7-2.68.91-1.16 1.49-2.62 2.16-3.94.71.37 1.42.75 2.13 1.11.89-1.67 1.85-3.3 2.82-4.92.62.14 1.24.28 1.86.43 1.08-2 2.04-4.12 3.33-6 1.14-1 2.53-1.71 3.7-2.68.91-1.16 1.49-2.63 2.15-3.94.72.36 1.42.75 2.14 1.11.9-1.67 1.85-3.3 2.83-4.93.61.15 1.23.29 1.85.44 1.08-2 2.04-4.12 3.33-6 1.14-1 2.53-1.71 3.7-2.68.9-1.17 1.47-2.63 2.19-3.93Z"/>
    <path id="o" d="M512 186.61v83.88c-3.27 1.81-5.02 4.49-6.94 7.53-1.99 3.48-5.87 4.23-7.37 8.06-2.12-.59-2.97.91-4.39 2.22-3.19 3.31-4.34 7.21-8.28 9.77-1.65 1.03-2.44 2.31-3.33 4-2.31-.6-3.36 1.31-4.84 2.74-2.89 3.18-4.09 6.84-7.83 9.26-1.67 1.06-2.41 2.23-3.27 3.97-.52-.07-1.37-.64-1.8-.2-3.15 2.42-5.07 5.51-7.28 8.7-1.99 3.13-5.56 3.87-6.98 7.53-2.27-.73-3.93 1.88-5.38 3.23-1.85 1.8-1.8 3.88-2.16 6.25-.55-.26-1.1-.53-1.65-.79-2.16 2.99-5.5 3.82-6.85 7.46-.48-.15-.96-.29-1.43-.44-1.88 1.53-3.93 3.11-5.16 5.23-.6 1.39-.68 3.04-.91 4.53-.59-.28-1.19-.56-1.78-.84-.77 1.1-1.53 2.2-2.3 3.29-4.89.06-9.79-.08-14.68.08-2.26 5.35-4.38 10.75-6.63 16.11-.98-.36-1.96-.72-2.94-1.07-2.02 1.72-2.86 3.81-3.74 6.23-1.68-.05-3.37-.11-5.06-.18.82.38 1.64.75 2.45 1.13-2.27 1.94-2.44 4.47-6 4.19.3.62.59 1.25.89 1.87-.94.95-1.87 1.91-2.79 2.87-.55-.21-1.09-.42-1.63-.64-2.33 2.45-3.18 5.64-5.32 8.23-2.49-5.98-6.57-11.04-12.37-14.06-12.31-6.73-29.03-3.24-36.74 8.74-4.54 6.81-5.51 15.47-3.21 23.26 2.36 7.43 7.61 13.31 14.73 16.49-3.62 2.23-5.3 5.63-7.62 8.98-1.5 2.3-3.78 2.39-6.18 3.25.86.34 1.71.68 2.57 1.02-2.02.8-4.39 1.27-5.81 2.97-3.18 3.7-6.24 7.23-7.94 11.86-1.67-.03-3.35-.09-5.03-.16.92.45 1.83.91 2.74 1.36-2.02.79-4.35 1.23-5.77 2.94-3.18 3.7-6.24 7.23-7.94 11.87-1.67-.05-3.35-.1-5.02-.17.91.46 1.82.91 2.73 1.36-2.02.79-4.35 1.23-5.77 2.95-3.18 3.69-6.24 7.22-7.94 11.86-1.67-.05-3.35-.1-5.02-.17.91.45 1.82.91 2.73 1.36-2.02.79-4.35 1.23-5.77 2.95-3.34 3.85-6.55 7.64-8.24 12.53h-62.32c1.68-2.53 3.89-3.63 6.31-5.26 1.59-1.88 2.1-4.72 3.1-6.97.99-.2 1.98-.41 2.97-.61.81-1.2 1.63-2.4 2.46-3.59.66.4 1.33.8 1.99 1.21.35-1.15.69-2.29 1.04-3.43 1.63-.86 3.74-1.68 4.91-3.15 1.17-1.98 1.75-4.31 2.64-6.43.99-.2 1.99-.4 2.99-.6.76-1.2 1.53-2.4 2.29-3.6.72.39 1.43.8 2.14 1.19.34-1.13.68-2.27 1.03-3.41 1.63-.86 3.74-1.68 4.91-3.15 1.17-1.97 1.75-4.31 2.63-6.43l3-.6c.76-1.2 1.53-2.4 2.29-3.6.72.4 1.43.8 2.14 1.19.34-1.13.68-2.27 1.03-3.41 1.63-.86 3.74-1.68 4.91-3.15 1.17-1.96 1.73-4.29 2.63-6.38 1.04-.25 2.13-.43 3.12-.82 1.69-2.14 2.69-4.86 4.14-7.19.53.09 1.05.17 1.58.26.83-.79 1.65-1.57 2.47-2.36.72.18 1.44.37 2.16.55 1.22-2.74 2.12-5.59 3.52-8.25 12.04 6.84 28.49 3.89 36.62-7.56 7.98-10.97 6.38-27.05-3.74-36.13.54-1.2 1.2-2.41 1.57-3.69-.13-1.23-.56-2.44-.88-3.63.78.48 1.56.97 2.34 1.45.48-.9.95-1.8 1.42-2.69l1.77.51c1.08-2.02 2.03-4.16 3.34-6.04 1.14-1.01 2.52-1.72 3.68-2.69 1.06-1.29 1.72-2.93 2.5-4.39.37.91.75 1.83 1.13 2.75.33-.36.67-.72 1.01-1.09-.43-1.27-.85-2.54-1.27-3.81.81.48 1.62.96 2.42 1.44l1.41-2.67c.59.16 1.18.32 1.78.49 1.08-2.02 2.04-4.15 3.34-6.04 1.14-1 2.53-1.7 3.68-2.69.94-1.2 1.6-2.64 2.33-3.98.82.48 1.65.95 2.47 1.43-.5-1.33-1-2.65-1.51-3.97.84.47 1.67.94 2.51 1.41.47-.88.93-1.77 1.4-2.65.59.16 1.19.32 1.78.49 1.08-2.02 2.04-4.15 3.34-6.04 1.13-1 2.53-1.7 3.68-2.68.93-1.21 1.59-2.65 2.33-3.99.82.48 1.65.95 2.47 1.43-.5-1.33-1-2.65-1.5-3.97.83.47 1.66.94 2.5 1.41.47-.88.93-1.77 1.4-2.65.59.16 1.18.32 1.77.49 1.09-2.02 2.05-4.15 3.35-6.04 1.13-1 2.53-1.7 3.69-2.67.92-1.18 1.51-2.66 2.19-3.99.87.47 1.74.94 2.61 1.4-.51-1.32-1.01-2.63-1.52-3.95.84.47 1.67.94 2.51 1.41.47-.88.93-1.77 1.4-2.66.59.17 1.18.34 1.78.5 1.08-2.01 2.04-4.15 3.34-6.04 1.14-1 2.53-1.7 3.68-2.69.94-1.19 1.6-2.65 2.33-3.98.82.48 1.65.96 2.47 1.43-.5-1.32-1-2.65-1.5-3.97.83.47 1.67.94 2.5 1.41.47-.88.93-1.77 1.4-2.66l1.78.51c1.08-2.02 2.04-4.16 3.33-6.05 1.15-1 2.54-1.71 3.71-2.68.92-1.17 1.5-2.65 2.18-3.98.87.47 1.74.94 2.6 1.41-.5-1.32-1-2.64-1.51-3.96.87.49 1.73.97 2.59 1.45l2.25-4.74 1.8.54c1.7-3.28 2.89-5.13 6.41-6.64.14-1.68.2-3.22 1.2-4.65 1.08.69 2.16 1.38 3.25 2.07-.5-1.34-.99-2.68-1.48-4.03.86.49 1.72.97 2.58 1.46.75-1.58 1.49-3.17 2.24-4.75.6.18 1.2.36 1.81.54 1.7-3.28 2.88-5.13 6.4-6.64.14-1.68.19-3.22 1.2-4.65 1.08.69 2.16 1.38 3.25 2.07-.5-1.35-.99-2.69-1.48-4.03.86.49 1.71.97 2.57 1.46l2.25-4.74c.59.17 1.18.35 1.77.52 1.73-3.23 2.97-5.16 6.48-6.64.09-1.16.2-2.32.29-3.48.35-.35.69-.7 1.04-1.04 1.03.64 2.05 1.29 3.08 1.94-.5-1.34-.99-2.68-1.48-4.02.86.49 1.72.97 2.58 1.46.75-1.58 1.49-3.16 2.24-4.74.59.17 1.18.35 1.77.53 1.72-3.23 2.95-5.16 6.46-6.65l.36-3.31c1.1-.96 2.2-1.92 3.24-2.96.65.37 1.31.74 1.96 1.11 1.06-2.26 2.14-4.52 3.21-6.79.61.24 1.21.47 1.81.7 1.46-2.66 3.09-3.59 5.76-4.83-.3-1.12-.59-2.25-.89-3.38 1.62-.73 3.11-1.34 4.21-2.79.63.37 1.27.73 1.9 1.1 1.06-2.27 2.14-4.53 3.21-6.8.61.24 1.21.47 1.82.7 1.45-2.66 3.09-3.59 5.75-4.83-.3-1.13-.59-2.25-.89-3.38 1.62-.73 3.11-1.33 4.21-2.8.64.38 1.27.75 1.91 1.12.98-2.05 1.82-4.18 2.85-6.2.6-1.46 2.32.13 3.27.34Z"/>
    <path id="p" d="M150.15 192.68c9.66 4.11 19.83 6.5 30.22 7.85 8.08 10.59 17.73 19.88 29.06 26.94-1.7 2.68-3.51 5.27-5.58 7.69-.24-.79-.47-1.57-.71-2.35-1.6 1.96-3.12 2.58-1.81 5.27-1.72.72-3.3 1.34-4.55 2.78-3.44 3.07-6.12 6.68-8.94 10.29-.23-.78-.46-1.56-.7-2.34-1.59 1.96-3.12 2.58-1.81 5.27-5.22 1.8-9.06 7.74-12.49 11.76-1.07.7-2.47.89-3.64 1.42-1 .81-.02 1.79.15 2.82-5.24 1.78-9.08 7.74-12.51 11.76-1.07.7-2.47.89-3.64 1.42-1.04.84.03 1.9.21 2.96-1.41.4-2.81.8-4.21 1.21.86.36 1.72.71 2.59 1.07-1.59.59-3.34 1.07-4.77 2-2.42 1.99-4.01 5.09-6.19 7.34-1.05.71-2.47.89-3.63 1.42-1.04.79.05 1.95.21 2.96-1.41.4-2.81.81-4.21 1.21.86.36 1.72.71 2.59 1.07-1.59.59-3.34 1.07-4.77 2-2.42 1.99-4.01 5.09-6.19 7.34-1.05.7-2.47.89-3.63 1.42-1.05.77.05 1.97.21 2.96-1.41.41-2.81.81-4.22 1.21.84.33 1.68.65 2.52.98-2.33 1.13-4.55 2.04-6.4 3.91-2.56 2.48-4.13 5.48-6.22 8.29-1.27 1.86-3.87 2.13-5.88 2.86.84.31 1.68.62 2.51.93-2.33 1.14-4.55 2.04-6.41 3.92-2.56 2.48-4.13 5.48-6.22 8.28-1.28 1.87-3.86 2.14-5.88 2.87.84.31 1.68.62 2.51.93-2.33 1.14-4.55 2.04-6.41 3.92-2.56 2.48-4.13 5.49-6.22 8.29-1.29 1.87-3.85 2.12-5.87 2.86.83.31 1.67.62 2.5.93-2.33 1.14-4.56 2.04-6.41 3.92-2.56 2.48-4.13 5.49-6.23 8.29-1.28 1.87-3.85 2.13-5.87 2.86.84.31 1.68.62 2.51.93-2.33 1.14-4.55 2.04-6.41 3.92-2.56 2.48-4.13 5.49-6.23 8.29-1.28 1.86-3.86 2.13-5.87 2.86.84.31 1.68.62 2.51.93-2.33 1.14-4.55 2.04-6.41 3.92-2.56 2.48-4.13 5.49-6.23 8.29-1.27 1.86-3.86 2.13-5.86 2.86l2.49.93c-2.32 1.14-4.55 2.04-6.4 3.92-2.56 2.48-4.13 5.49-6.23 8.29-1.27 1.85-3.86 2.13-5.86 2.87l2.49.9c-2.73 1.34-5.37 2.8-7.71 4.76v-96.42c1.51-.18 3.02-.35 4.53-.53l-.87-1.95c2.13-1.19 4.13-2.5 6.47-3.25 1.13-2.46 1.97-4.81 4.19-6.54l1.59 1.2c-.07-1.26-.48-2.75-.13-3.97.92-1.34 3.26-1.25 4.73-1.6-.29-.62-.58-1.23-.87-1.85 2.14-1.17 4.14-2.48 6.49-3.24 1.12-2.46 1.97-4.8 4.19-6.54l1.59 1.2c-.07-1.26-.48-2.74-.13-3.97.92-1.33 3.25-1.25 4.73-1.6-.29-.62-.57-1.23-.86-1.84 2.14-1.19 4.14-2.49 6.48-3.25 1.03-2.07 1.99-5.08 4-6.35.61.27 1.22.57 1.82.88-.09-1.2-.55-2.67-.17-3.84.92-1.34 3.26-1.25 4.73-1.6-.29-.62-.58-1.23-.87-1.85 2.15-1.17 4.14-2.49 6.49-3.24 1.12-2.46 1.97-4.8 4.19-6.54l1.59 1.2c-.07-1.26-.48-2.75-.13-3.97.92-1.33 3.25-1.25 4.73-1.6-.29-.61-.57-1.23-.86-1.84 2.14-1.18 4.13-2.5 6.48-3.25 1.12-2.46 1.97-4.8 4.19-6.54.53.4 1.06.8 1.59 1.21-.07-1.27-.48-2.75-.14-3.98.93-1.33 3.26-1.25 4.74-1.6-.29-.62-.57-1.23-.86-1.84 2.14-1.18 4.13-2.5 6.48-3.25 1.13-2.46 1.97-4.81 4.2-6.55.52.41 1.05.81 1.58 1.22-.07-1.27-.48-2.76-.13-3.98.92-1.33 3.25-1.25 4.72-1.6-.28-.61-.56-1.23-.84-1.84 2.13-1.19 4.13-2.5 6.47-3.25 1.13-2.46 1.97-4.81 4.19-6.54.53.4 1.06.8 1.59 1.21-.07-1.27-.48-2.75-.13-3.98.92-1.34 3.25-1.25 4.73-1.6-.29-.61-.57-1.23-.86-1.84 2.14-1.17 4.12-2.49 6.46-3.25 1.36-3.1 2.95-5.76 5.23-8.28 1.07.03 2.14.05 3.22.08l-1.05-2.61c2.75-2.09 5.25-4.16 8.59-5.19 2.61-5.83 6.54-10.95 12.05-14.31Z"/>
    <path id="q" d="M209.43 227.47c7.26 4.65 15.13 7.77 23.24 10.54-.12 9.27-.01 18.54-.05 27.81-13.21.04-26.41 0-39.62 0-2.62.02-5.33-.17-7.92.23-1.76.51-2.88 2.11-2.87 3.93-.19 6.44.01 12.89-.08 19.34-8.38.09-16.77-.1-25.15.07-2.64.02-4.22 1.98-4.15 4.56-.05 5.01-.16 10.08.07 15.08.1 2.2 1.92 3.76 4.08 3.76 7.17.18 14.35-.03 21.52.09-1.8 3.18-3.48 5.61-7.47 5.07-1.03 1.7-2.06 3.39-2.98 5.14l-2.7.6c-1.27 2.28-3.31 2.99-5.29 4.48-.71 1.23 0 2.73.25 4.01-1.94 1.73-2.79 1.91-5.28 1.77-1.03 1.7-2.06 3.39-2.98 5.14l-2.71.6c-1.26 2.27-2.9 3.03-5.21 4.04 1.2.17 2.41.35 3.62.53-1.47 1.75-3.04 3.75-4.93 5.05-1.12.87-2.5.48-3.79.8-1.22 1.48-2.05 3.31-2.97 4.98-.91.2-1.82.4-2.72.6-1.26 2.27-2.89 3.03-5.21 4.04 1.2.17 2.41.35 3.62.53-2.52 2.72-4.46 6.42-8.7 5.68-1.04 1.69-2.08 3.39-3 5.15l-2.71.6c-1.26 2.27-2.89 3.03-5.21 4.04 1.2.17 2.41.35 3.61.54-2.31 2.49-4.75 6.76-8.77 5.56-.4 1.1-.79 2.21-1.18 3.31-5.58.01-11.17 0-16.76 0 1.3 3.12 2.63 6.23 3.94 9.34-2.35 3.06-3.85 4.09-7.74 4.99.86.34 1.71.68 2.57 1.02-2.81.94-5.31 1.78-7.06 4.32-1.58 1.52-1 2.89-.83 4.84l-1.59-1.2c-2.64 2.07-3.51 4.83-4.41 7.9-1.62-.72-3.17-1.17-4.93-1.47.91.57 1.81 1.13 2.73 1.68-3.6.99-6.53 2.57-8.08 6.11.07.96.17 1.91.32 2.86-.61-.33-1.23-.64-1.86-.92-2.54 2.04-3.25 4.78-4.17 7.74-1.63-.72-3.18-1.18-4.94-1.47.91.57 1.81 1.13 2.73 1.68-3.15.92-5.58 2.01-7.42 4.83-1.14 1.23-.42 2.73-.38 4.26l-1.59-1.2c-2.64 2.06-3.51 4.83-4.41 7.89-1.63-.71-3.17-1.16-4.93-1.46.87.54 1.75 1.07 2.64 1.6-2.99 1.41-6.1 2.8-7.95 5.7-.06 1.14.13 2.3.25 3.43l-1.86-1.14c-2.32 2.28-3.3 4.82-4.15 7.87-1.63-.71-3.18-1.16-4.94-1.46.88.54 1.77 1.07 2.66 1.6-3 1.4-6.11 2.8-7.96 5.7-.05 1.15.13 2.32.23 3.47-.52-.4-1.05-.8-1.58-1.2-2.64 2.07-3.51 4.83-4.41 7.9-1.63-.72-3.17-1.17-4.93-1.47.87.54 1.75 1.07 2.64 1.59-2.71 1.29-5.31 2.74-7.62 4.67v-48c2.34-1.96 4.98-3.42 7.71-4.76l-2.49-.9c2-.74 4.59-1.02 5.86-2.87 2.1-2.8 3.67-5.81 6.23-8.29 1.85-1.88 4.08-2.78 6.4-3.92l-2.49-.93c2-.73 4.59-1 5.86-2.86 2.1-2.8 3.67-5.81 6.23-8.29 1.86-1.88 4.08-2.78 6.41-3.92-.83-.31-1.67-.62-2.51-.93 2.01-.73 4.59-1 5.87-2.86 2.1-2.8 3.67-5.81 6.23-8.29 1.86-1.88 4.08-2.78 6.41-3.92-.83-.31-1.67-.62-2.51-.93 2.02-.73 4.59-.99 5.87-2.86 2.1-2.8 3.67-5.81 6.23-8.29 1.85-1.88 4.08-2.78 6.41-3.92-.83-.31-1.67-.62-2.5-.93 2.02-.74 4.58-.99 5.87-2.86 2.09-2.8 3.66-5.81 6.22-8.29 1.86-1.88 4.08-2.78 6.41-3.92-.83-.31-1.67-.62-2.51-.93 2.02-.73 4.6-1 5.88-2.87 2.09-2.8 3.66-5.8 6.22-8.28 1.86-1.88 4.08-2.78 6.41-3.92-.83-.31-1.67-.62-2.51-.93 2.01-.73 4.61-1 5.88-2.86 2.09-2.81 3.66-5.81 6.22-8.29 1.85-1.87 4.07-2.78 6.4-3.91-.84-.33-1.68-.65-2.52-.98 1.41-.4 2.81-.8 4.22-1.21-.16-.99-1.26-2.19-.21-2.96 1.16-.53 2.58-.72 3.63-1.42 2.18-2.25 3.77-5.35 6.19-7.34 1.43-.93 3.18-1.41 4.77-2-.87-.36-1.73-.71-2.59-1.07 1.4-.4 2.8-.81 4.21-1.21-.16-1.01-1.25-2.17-.21-2.96 1.16-.53 2.58-.71 3.63-1.42 2.18-2.25 3.77-5.35 6.19-7.34 1.43-.93 3.18-1.41 4.77-2-.87-.36-1.73-.71-2.59-1.07 1.4-.41 2.8-.81 4.21-1.21-.18-1.06-1.25-2.12-.21-2.96 1.17-.53 2.57-.72 3.64-1.42 3.43-4.02 7.27-9.98 12.51-11.76-.17-1.03-1.15-2.01-.15-2.82 1.17-.53 2.57-.72 3.64-1.42 3.43-4.02 7.27-9.96 12.49-11.76-1.31-2.69.22-3.31 1.81-5.27.24.78.47 1.56.7 2.34 2.82-3.61 5.5-7.22 8.94-10.29 1.25-1.44 2.83-2.06 4.55-2.78-1.31-2.69.21-3.31 1.81-5.27.24.78.47 1.56.71 2.35 2.07-2.42 3.88-5.01 5.58-7.69Z"/>
    <path id="r" d="M512 270.49v80.1c-2.62 1.27-4.28 3.56-7.03 4.55-2.04 2.16-3.53 4.56-6.15 6.17.16.52.33 1.04.49 1.57-4.4 2.06-5.58 6.74-10.34 8.25-2.04 2.18-3.53 4.57-6.15 6.18.16.52.33 1.04.49 1.57-4.39 2.06-5.58 6.74-10.34 8.25-2.04 2.18-3.53 4.56-6.15 6.18.16.52.32 1.04.49 1.57-4.4 2.06-5.58 6.74-10.34 8.25-2.04 2.18-3.53 4.57-6.15 6.18.16.52.33 1.04.49 1.57-4.39 2.06-5.58 6.74-10.34 8.25-2.04 2.18-3.53 4.57-6.16 6.18.17.52.34 1.04.5 1.57-4.39 2.05-5.58 6.74-10.34 8.25-2.04 2.18-3.53 4.56-6.15 6.18.16.52.33 1.04.49 1.57-4.41 2.04-5.51 6.66-10.08 8.09-2.38.95-2.99 4.98-4.44 6.97-2.15 1.44-4.34 2.29-5.81 4.57-1.81 2.53-3.16 3.79-6.24 4.5-1.21 2.18-2.14 4.64-3.67 6.61-1.93 1.67-4.3 2.27-5.8 4.53-1.85 2.55-3.32 4.2-6.53 4.86-1.21 2.18-2.14 4.64-3.67 6.61-1.93 1.67-4.31 2.27-5.8 4.53-1.86 2.55-3.32 4.2-6.53 4.86-1.86 3.1-2.48 6.67-6.03 8.22-2.22 1.07-3.4 2.94-4.91 4.77h-84.05c1.69-4.89 4.9-8.68 8.24-12.53 1.42-1.72 3.75-2.16 5.77-2.95-.91-.45-1.82-.91-2.73-1.36 1.67.07 3.35.12 5.02.17 1.7-4.64 4.76-8.17 7.94-11.86 1.42-1.72 3.75-2.16 5.77-2.95-.91-.45-1.82-.9-2.73-1.36 1.67.07 3.35.12 5.02.17 1.7-4.64 4.76-8.17 7.94-11.87 1.42-1.71 3.75-2.15 5.77-2.94-.91-.45-1.82-.91-2.74-1.36 1.68.07 3.36.13 5.03.16 1.7-4.63 4.76-8.16 7.94-11.86 1.42-1.7 3.79-2.17 5.81-2.97-.86-.34-1.71-.68-2.57-1.02 2.4-.86 4.68-.95 6.18-3.25 2.32-3.35 4-6.75 7.62-8.98 10.93 4.82 24.54 2.36 32.52-6.71 6.72-7.54 8.35-18.27 5.07-27.72 2.14-2.59 2.99-5.78 5.32-8.23.54.22 1.08.43 1.63.64.92-.96 1.85-1.92 2.79-2.87-.3-.62-.59-1.25-.89-1.87 3.56.28 3.73-2.25 6-4.19-.81-.38-1.63-.75-2.45-1.13 1.69.07 3.38.13 5.06.18.88-2.42 1.72-4.51 3.74-6.23.98.35 1.96.71 2.94 1.07-4.24 10.32-8.48 20.65-12.69 30.99 7.2 0 14.4.03 21.61-.03 6.42-15.72 12.9-31.42 19.31-47.14-2.31-.01-4.61-.01-6.92-.01.77-1.09 1.53-2.19 2.3-3.29.59.28 1.19.56 1.78.84.23-1.49.31-3.14.91-4.53 1.23-2.12 3.28-3.7 5.16-5.23.47.15.95.29 1.43.44 1.35-3.64 4.69-4.47 6.85-7.46.55.26 1.1.53 1.65.79.36-2.37.31-4.45 2.16-6.25 1.45-1.35 3.11-3.96 5.38-3.23 1.42-3.66 4.99-4.4 6.98-7.53 2.21-3.19 4.13-6.28 7.28-8.7.43-.44 1.28.13 1.8.2.86-1.74 1.6-2.91 3.27-3.97 3.74-2.42 4.94-6.08 7.83-9.26 1.48-1.43 2.53-3.34 4.84-2.74.89-1.69 1.68-2.97 3.33-4 3.94-2.56 5.09-6.46 8.28-9.77 1.42-1.31 2.27-2.81 4.39-2.22 1.5-3.83 5.38-4.58 7.37-8.06 1.92-3.04 3.67-5.72 6.94-7.53ZM388.47 414.57c-6.82 2.76-9.66 11.38-5.69 17.63 3.61 5.9 11.96 7.11 17.36 2.97 5.18-3.86 6.36-11.59 2.53-16.81-3.2-4.42-9.21-5.82-14.2-3.79Z"/>
    <path id="s" d="M178.5 312.88c22.51-.06 45.04-.02 67.55-.03-2.06 1.44-3.28 3.18-4.41 5.39-.47-.16-.94-.32-1.41-.47-.67.58-1.33 1.16-2 1.74.77.26 1.55.51 2.32.76a30.84 30.84 0 0 0-3.78 4.05c-.67-.33-1.35-.67-2.02-1.01-1.59 2.61-3.06 5.1-5.73 6.76-1.73 1.07-2.51 2.43-3.39 4.2-.41-.19-.83-.39-1.24-.58-.73.6-1.45 1.22-2.18 1.82.79.25 1.57.5 2.36.75a28.724 28.724 0 0 0-3.8 4.07c-.67-.34-1.35-.68-2.02-1.02-1.59 2.61-3.05 5.1-5.73 6.76-1.71 1.06-2.5 2.42-3.38 4.17-.47-.16-.94-.32-1.41-.47-.67.58-1.33 1.17-2 1.75.78.25 1.55.49 2.33.74a29.739 29.739 0 0 0-3.79 4.06c-.67-.34-1.34-.67-2.02-1-1.76 3.85-5.64 5.8-6.75 9.87-.82 1.58-2.73.78-4.11.8-.57.49-1.13.99-1.67 1.52.78.26 1.55.51 2.33.76-1.41 1.25-2.62 2.57-3.78 4.05-.68-.33-1.34-.68-2.02-1.01-1.45 2.66-3.41 4.78-5.44 6.99-1.12 1.93-1.99 3.91-3.5 5.6-5.84-1.15-11.84-.23-16.82 3.1-9.1 5.76-13.29 16.76-12.16 27.25-1.57-.11-3.13-.25-4.7-.3-.66.5-1.29 1.02-1.93 1.54.79.26 1.57.52 2.36.77-1.32 1.2-2.52 2.47-3.69 3.82-1.28-.12-2.21-.26-3.37.46 4.89-11.8 9.81-23.58 14.65-35.39-6.42-.03-12.84.03-19.26-.04-4.2 10.02-7.8 20.3-12.15 30.25-4.02-10.04-7.87-20.16-11.86-30.22h-3.09c.39-1.1.78-2.21 1.18-3.31 4.02 1.2 6.46-3.07 8.77-5.56-1.2-.19-2.41-.37-3.61-.54 2.32-1.01 3.95-1.77 5.21-4.04l2.71-.6c.92-1.76 1.96-3.46 3-5.15 4.24.74 6.18-2.96 8.7-5.68-1.21-.18-2.42-.36-3.62-.53 2.32-1.01 3.95-1.77 5.21-4.04.9-.2 1.81-.4 2.72-.6.92-1.67 1.75-3.5 2.97-4.98 1.29-.32 2.67.07 3.79-.8 1.89-1.3 3.46-3.3 4.93-5.05-1.21-.18-2.42-.36-3.62-.53 2.31-1.01 3.95-1.77 5.21-4.04l2.71-.6c.92-1.75 1.95-3.44 2.98-5.14 2.49.14 3.34-.04 5.28-1.77-.25-1.28-.96-2.78-.25-4.01 1.98-1.49 4.02-2.2 5.29-4.48l2.7-.6c.92-1.75 1.95-3.44 2.98-5.14 3.99.54 5.67-1.89 7.47-5.07Z"/>
    <path id="t" d="M246.05 312.85c22.8.01 45.61-.02 68.41.01-1.59 3.34-2.46 3.64-5.94 4.61.33 1.07.67 2.15 1 3.22-1.21.96-2.4 1.92-3.52 2.98-.71-.47-1.42-.95-2.14-1.42-2.22 2.99-4.4 6.03-6.74 8.93-.99 1.41-3.05 1.67-4.6 2.31.34 1.07.67 2.14 1 3.21-1.21.95-2.4 1.9-3.5 2.98-.72-.48-1.44-.96-2.16-1.43-2.22 2.99-4.39 6.04-6.75 8.93-1.08 1.46-3.37 1.84-5.01 2.5 1.2.16 2.39.33 3.58.5-3.22 2.55-4.44 6.07-9.05 5.99.34 1.05 1.07 1.73.44 2.83-1.06 2.51-3.49 2.03-5.37 3.7-1.73 1.5-3.42 2.29-5.59 3 1.19.15 2.38.31 3.57.47-3.21 2.56-4.45 6.08-9.05 6 .34 1.05 1.07 1.73.44 2.83-1.06 2.51-3.49 2.04-5.37 3.7-1.77 1.52-3.41 2.3-5.63 2.99 1.25.2 2.5.41 3.74.63l-1.77 1.62c-6.83-.72-12.22.91-16.86 6.03.04-9.32.03-18.64.02-27.96-6.09-.02-12.17-.03-18.26-.01-.01 24.91.02 49.82.02 74.73l-.78-.05c-.61-11.12.28-22.33-.38-33.45-.54-.37-1.09-.73-1.63-1.1-1.02 1.26-2.17 2.29-3.44 3.3-.13-6.96.14-13.94-.15-20.89-5.83.12-11.65.02-17.47.07 0 1.56 0 3.11.01 4.67-2.72-2.66-5.57-4.5-9.31-5.38 1.51-1.69 2.38-3.67 3.5-5.6 2.03-2.21 3.99-4.33 5.44-6.99.68.33 1.34.68 2.02 1.01 1.16-1.48 2.37-2.8 3.78-4.05-.78-.25-1.55-.5-2.33-.76.54-.53 1.1-1.03 1.67-1.52 1.38-.02 3.29.78 4.11-.8 1.11-4.07 4.99-6.02 6.75-9.87.68.33 1.35.66 2.02 1 1.16-1.49 2.38-2.81 3.79-4.06-.78-.25-1.55-.49-2.33-.74.67-.58 1.33-1.17 2-1.75.47.15.94.31 1.41.47.88-1.75 1.67-3.11 3.38-4.17 2.68-1.66 4.14-4.15 5.73-6.76.67.34 1.35.68 2.02 1.02 1.16-1.5 2.38-2.82 3.8-4.07-.79-.25-1.57-.5-2.36-.75.73-.6 1.45-1.22 2.18-1.82.41.19.83.39 1.24.58.88-1.77 1.66-3.13 3.39-4.2 2.67-1.66 4.14-4.15 5.73-6.76.67.34 1.35.68 2.02 1.01a30.84 30.84 0 0 1 3.78-4.05c-.77-.25-1.55-.5-2.32-.76.67-.58 1.33-1.16 2-1.74.47.15.94.31 1.41.47 1.13-2.21 2.35-3.95 4.41-5.39Z"/>
    <path id="u" d="M512 350.59V512H349.8c1.51-1.83 2.69-3.7 4.91-4.77 3.55-1.55 4.17-5.12 6.03-8.22 3.21-.66 4.67-2.31 6.53-4.86 1.49-2.26 3.87-2.86 5.8-4.53 1.53-1.97 2.46-4.43 3.67-6.61 3.21-.66 4.68-2.31 6.53-4.86 1.5-2.26 3.87-2.86 5.8-4.53 1.53-1.97 2.46-4.43 3.67-6.61 3.08-.71 4.43-1.97 6.24-4.5 1.47-2.28 3.66-3.13 5.81-4.57 1.45-1.99 2.06-6.02 4.44-6.97 4.57-1.43 5.67-6.05 10.08-8.09-.16-.53-.33-1.05-.49-1.57 2.62-1.62 4.11-4 6.15-6.18 4.76-1.51 5.95-6.2 10.34-8.25-.16-.53-.33-1.05-.5-1.57 2.63-1.61 4.12-4 6.16-6.18 4.76-1.51 5.95-6.19 10.34-8.25-.16-.53-.33-1.05-.49-1.57 2.62-1.61 4.11-4 6.15-6.18 4.76-1.51 5.94-6.19 10.34-8.25-.17-.53-.33-1.05-.49-1.57 2.62-1.62 4.11-4 6.15-6.18 4.76-1.51 5.95-6.19 10.34-8.25-.16-.53-.33-1.05-.49-1.57 2.62-1.61 4.11-4 6.15-6.18 4.76-1.51 5.94-6.19 10.34-8.25-.16-.53-.33-1.05-.49-1.57 2.62-1.61 4.11-4.01 6.15-6.17 2.75-.99 4.41-3.28 7.03-4.55Z"/>
    <path id="v" d="M210.94 362c6.09-.02 12.17-.01 18.26.01.01 9.32.02 18.64-.02 27.96 4.64-5.12 10.03-6.75 16.86-6.03 4.02.74 7.68 2.52 10.26 5.76 3.53 4.41 4.43 9.75 4.47 15.27.01 10.59.01 21.19 0 31.78-6.12.01-12.24.03-18.36 0-.02-8.92.01-17.84-.01-26.76-.1-2.23-.09-5.1-1.4-7.01-2.17-3.28-7.73-3.13-9.96.03-1.63 2.13-1.67 5.39-1.73 7.97 0 8.59.03 17.19-.01 25.78-6.12-.03-12.23.07-18.34-.03 0-24.91-.03-49.82-.02-74.73Z"/>
    <path id="w" d="M407.39 362.07c4.89-.16 9.79-.02 14.68-.08 2.31 0 4.61 0 6.92.01-6.41 15.72-12.89 31.42-19.31 47.14-7.21.06-14.41.03-21.61.03 4.21-10.34 8.45-20.67 12.69-30.99 2.25-5.36 4.37-10.76 6.63-16.11Z"/>
    <path id="x" d="M364.25 386.75c5.8 3.02 9.88 8.08 12.37 14.06 3.28 9.45 1.65 20.18-5.07 27.72-7.98 9.07-21.59 11.53-32.52 6.71-7.12-3.18-12.37-9.06-14.73-16.49-2.3-7.79-1.33-16.45 3.21-23.26 7.71-11.98 24.43-15.47 36.74-8.74Zm-15.78 13.89c-6.85 1.78-9.47 10.05-6.09 15.95 2.83 5.08 9.73 6.55 14.48 3.27 5.09-3.47 5.9-11.15 2.1-15.87-2.49-3.11-6.66-4.34-10.49-3.35Z"/>
    <path id="y" d="M177.81 383.9c3.74.88 6.59 2.72 9.31 5.38-.01-1.56-.01-3.11-.01-4.67 5.82-.05 11.64.05 17.47-.07.29 6.95.02 13.93.15 20.89-.04 10.28-.03 20.56-.01 30.85-5.84.08-11.69.03-17.53.04-.07-1.59-.1-3.17-.09-4.76-6.43 7.5-18.27 7.68-26.18 2.54-7.06-4.37-10.92-11.79-12.09-19.85-1.13-10.49 3.06-21.49 12.16-27.25 4.98-3.33 10.98-4.25 16.82-3.1Zm-3.34 16.72c-6.84 1.62-10 9.49-6.69 15.58 3.01 5.58 10.72 7.1 15.76 3.34 4.73-3.45 5.59-10.52 2.07-15.13-2.57-3.41-7.04-4.78-11.14-3.79Z"/>
    <path id="z" d="M310.71 390.32c10.12 9.08 11.72 25.16 3.74 36.13-8.13 11.45-24.58 14.4-36.62 7.56-4.56-2.64-8.3-6.5-10.63-11.24-5.52-10.94-2.89-25.11 6.62-32.97 10.43-8.8 26.69-8.5 36.89.52Zm-20.28 10.16c-6.93 1.28-10.08 9.17-7.21 15.29 2.39 5.36 9.05 7.4 14.14 4.56 5.53-3.09 6.8-10.85 3.2-15.88-2.26-3.22-6.3-4.69-10.13-3.97Z"/>
    <path id="A" d="M89.03 385.14c5.59 0 11.18.01 16.76 0h3.09c3.99 10.06 7.84 20.18 11.86 30.22 4.35-9.95 7.95-20.23 12.15-30.25 6.42.07 12.84.01 19.26.04-4.84 11.81-9.76 23.59-14.65 35.39a7487.85 7487.85 0 0 1-14.86 35.81h-13.36l-6.05-.03c2.4-6.3 5.83-12.74 7.75-19.12-5.82-14.24-12.07-28.5-18.01-42.72-1.31-3.11-2.64-6.22-3.94-9.34Z"/>
    <path id="B" d="M92.97 394.48c5.94 14.22 12.19 28.48 18.01 42.72-1.92 6.38-5.35 12.82-7.75 19.12l6.05.03c-.75 2.07-1.36 4.52-2.7 6.3-2.31 1.13-4.62 2.13-6.81 3.53.29 1.12.58 2.24.88 3.35-2.67 1.24-4.3 2.16-5.76 4.83-.6-.23-1.21-.47-1.81-.7-1.07 2.26-2.15 4.53-3.22 6.8l-1.89-1.11c-1.1 1.46-2.59 2.06-4.21 2.8.29 1.12.59 2.25.89 3.38-2.67 1.24-4.3 2.16-5.76 4.83-.6-.23-1.2-.47-1.81-.7-1.07 2.27-2.15 4.53-3.22 6.8-.63-.37-1.27-.74-1.9-1.11-1.09 1.47-2.59 2.06-4.2 2.8.29 1.12.59 2.25.89 3.38-2.67 1.24-4.3 2.16-5.76 4.84-.58-.23-1.17-.46-1.76-.69-1.09 2.11-2.14 4.24-3.29 6.32H0v-26.86c2.31-1.93 4.91-3.38 7.62-4.67-.89-.52-1.77-1.05-2.64-1.59 1.76.3 3.3.75 4.93 1.47.9-3.07 1.77-5.83 4.41-7.9.53.4 1.06.8 1.58 1.2-.1-1.15-.28-2.32-.23-3.47 1.85-2.9 4.96-4.3 7.96-5.7-.89-.53-1.78-1.06-2.66-1.6 1.76.3 3.31.75 4.94 1.46.85-3.05 1.83-5.59 4.15-7.87l1.86 1.14c-.12-1.13-.31-2.29-.25-3.43 1.85-2.9 4.96-4.29 7.95-5.7-.89-.53-1.77-1.06-2.64-1.6 1.76.3 3.3.75 4.93 1.46.9-3.06 1.77-5.83 4.41-7.89l1.59 1.2c-.04-1.53-.76-3.03.38-4.26 1.84-2.82 4.27-3.91 7.42-4.83-.92-.55-1.82-1.11-2.73-1.68 1.76.29 3.31.75 4.94 1.47.92-2.96 1.63-5.7 4.17-7.74.63.28 1.25.59 1.86.92-.15-.95-.25-1.9-.32-2.86 1.55-3.54 4.48-5.12 8.08-6.11-.92-.55-1.82-1.11-2.73-1.68 1.76.3 3.31.75 4.93 1.47.9-3.07 1.77-5.83 4.41-7.9l1.59 1.2c-.17-1.95-.75-3.32.83-4.84 1.75-2.54 4.25-3.38 7.06-4.32-.86-.34-1.71-.68-2.57-1.02 3.89-.9 5.39-1.93 7.74-4.99Z"/>
    <path id="C" d="M174.47 400.62c4.1-.99 8.57.38 11.14 3.79 3.52 4.61 2.66 11.68-2.07 15.13-5.04 3.76-12.75 2.24-15.76-3.34-3.31-6.09-.15-13.96 6.69-15.58Z"/>
    <path id="D" d="M290.43 400.48c3.83-.72 7.87.75 10.13 3.97 3.6 5.03 2.33 12.79-3.2 15.88-5.09 2.84-11.75.8-14.14-4.56-2.87-6.12.28-14.01 7.21-15.29Z"/>
    <path id="E" d="M348.47 400.64c3.83-.99 8 .24 10.49 3.35 3.8 4.72 2.99 12.4-2.1 15.87-4.75 3.28-11.65 1.81-14.48-3.27-3.38-5.9-.76-14.17 6.09-15.95Z"/>
    <path id="F" d="M144.13 413.95c1.57.05 3.13.19 4.7.3 1.17 8.06 5.03 15.48 12.09 19.85 7.91 5.14 19.75 4.96 26.18-2.54-.01 1.59.02 3.17.09 4.76l.07.62c2.24.21 4.47.29 6.71.37-3.96 3.24-8.59 5.29-12.65 8.4.77.19 1.53.37 2.3.56-1.98 2-4.61 3.74-5.85 6.23-1.18 2.33-3.26 3.53-5.5 4.71-2.48 1.2-4.6 3.01-6.95 4.5.76.19 1.52.38 2.29.57-1.98 2.01-4.6 3.73-5.84 6.22-1.18 2.33-3.27 3.53-5.5 4.71-2.47 1.2-4.59 3-6.94 4.49.75.2 1.51.39 2.26.59-2.45 2.33-5 4.21-6.52 7.33-2.47 2.23-4.66 3.65-5.84 7-2.55-1.53-3.69-.24-6.06.9.81.26 1.61.53 2.42.79-2.47 2.3-5 4.2-6.52 7.32-2.47 2.21-4.66 3.65-5.84 6.99-2.55-1.53-3.69-.24-6.06.9.9.33 1.8.65 2.7.98-1.12.51-2.23 1.02-3.36 1.5H57.84c1.15-2.08 2.2-4.21 3.29-6.32.59.23 1.18.46 1.76.69 1.46-2.68 3.09-3.6 5.76-4.84-.3-1.13-.6-2.26-.89-3.38 1.61-.74 3.11-1.33 4.2-2.8.63.37 1.27.74 1.9 1.11 1.07-2.27 2.15-4.53 3.22-6.8.61.23 1.21.47 1.81.7 1.46-2.67 3.09-3.59 5.76-4.83-.3-1.13-.6-2.26-.89-3.38 1.62-.74 3.11-1.34 4.21-2.8l1.89 1.11c1.07-2.27 2.15-4.54 3.22-6.8.6.23 1.21.47 1.81.7 1.46-2.67 3.09-3.59 5.76-4.83-.3-1.11-.59-2.23-.88-3.35 2.19-1.4 4.5-2.4 6.81-3.53 1.34-1.78 1.95-4.23 2.7-6.3h13.36c4.99-11.92 9.93-23.86 14.86-35.81 1.16-.72 2.09-.58 3.37-.46 1.17-1.35 2.37-2.62 3.69-3.82-.79-.25-1.57-.51-2.36-.77.64-.52 1.27-1.04 1.93-1.54Z"/>
    <path id="G" d="M388.47 414.57c4.99-2.03 11-.63 14.2 3.79 3.83 5.22 2.65 12.95-2.53 16.81-5.4 4.14-13.75 2.93-17.36-2.97-3.97-6.25-1.13-14.87 5.69-17.63Z"/>
  </defs>
  <g stroke-width="10pt">
    <use xlink:href="#a" stroke="#7758ff"/>
    <use xlink:href="#b" stroke="#7550fb"/>
    <use xlink:href="#c" stroke="#7349f7"/>
    <use xlink:href="#d" stroke="#7040f2"/>
    <use xlink:href="#e" stroke="#6e38ee"/>
    <use xlink:href="#f" stroke="#6d31eb"/>
    <use xlink:href="#g" stroke="#6a26e5"/>
    <use xlink:href="#h" stroke="#f1f1f1"/>
    <use xlink:href="#i" stroke="#188fff"/>
    <use xlink:href="#j" stroke="#744efa"/>
    <use xlink:href="#k" stroke="#734af7"/>
    <use xlink:href="#l" stroke="#6c2ee9"/>
    <use xlink:href="#m" stroke="#671ce0"/>
    <use xlink:href="#n" stroke="#7246f5"/>
    <use xlink:href="#o" stroke="#6514dc"/>
    <use xlink:href="#p" stroke="#6f3cf0"/>
    <use xlink:href="#q" stroke="#6d34ec"/>
    <use xlink:href="#r" stroke="#620ad7"/>
    <use xlink:href="#s" stroke="#6b2ce8"/>
    <use xlink:href="#t" stroke="#6924e4"/>
    <use xlink:href="#u" stroke="#6001d2"/>
    <use xlink:href="#v" stroke="#fff"/>
    <use xlink:href="#w" stroke="#fff"/>
    <use xlink:href="#x" stroke="#fff"/>
    <use xlink:href="#y" stroke="#fff"/>
    <use xlink:href="#z" stroke="#fff"/>
    <use xlink:href="#A" stroke="#fff"/>
    <use xlink:href="#B" stroke="#6b2de8"/>
    <use xlink:href="#C" stroke="#6925e4"/>
    <use xlink:href="#D" stroke="#6618de"/>
    <use xlink:href="#E" stroke="#6411da"/>
    <use xlink:href="#F" stroke="#6924e4"/>
    <use xlink:href="#G" stroke="#fff"/>
  </g>
  <use xlink:href="#a" fill="#7758ff"/>
  <use xlink:href="#b" fill="#7550fb"/>
  <use xlink:href="#c" fill="#7349f7"/>
  <use xlink:href="#d" fill="#7040f2"/>
  <use xlink:href="#e" fill="#6e38ee"/>
  <use xlink:href="#f" fill="#6d31eb"/>
  <use xlink:href="#g" fill="#6a26e5"/>
  <use xlink:href="#h" fill="#f1f1f1"/>
  <use xlink:href="#i" fill="#188fff"/>
  <use xlink:href="#j" fill="#744efa"/>
  <use xlink:href="#k" fill="#734af7"/>
  <use xlink:href="#l" fill="#6c2ee9"/>
  <use xlink:href="#m" fill="#671ce0"/>
  <use xlink:href="#n" fill="#7246f5"/>
  <use xlink:href="#o" fill="#6514dc"/>
  <use xlink:href="#p" fill="#6f3cf0"/>
  <use xlink:href="#q" fill="#6d34ec"/>
  <use xlink:href="#r" fill="#620ad7"/>
  <use xlink:href="#s" fill="#6b2ce8"/>
  <use xlink:href="#t" fill="#6924e4"/>
  <use xlink:href="#u" fill="#6001d2"/>
  <use xlink:href="#v" fill="#fff"/>
  <use xlink:href="#w" fill="#fff"/>
  <use xlink:href="#x" fill="#fff"/>
  <use xlink:href="#y" fill="#fff"/>
  <use xlink:href="#z" fill="#fff"/>
  <use xlink:href="#A" fill="#fff"/>
  <use xlink:href="#B" fill="#6b2de8"/>
  <use xlink:href="#C" fill="#6925e4"/>
  <use xlink:href="#D" fill="#6618de"/>
  <use xlink:href="#E" fill="#6411da"/>
  <use xlink:href="#F" fill="#6924e4"/>
  <use xlink:href="#G" fill="#fff"/>
</svg>